<svg width="105" height="95" viewBox="0 0 105 95" fill="none" xmlns="file:///C:/Users/Augusto/Desktop/No%20Lagg-5.3.svg">
<path d="M105 47.6872C105 40.7314 96.2892 34.1395 82.9342 30.0516C86.0161 16.4397 84.6464 5.61012 78.6109 2.14294C77.2197 1.32965 75.5931 0.944406 73.8167 0.944406V5.71713C74.8013 5.71713 75.5932 5.90975 76.2566 6.27359C79.1673 7.94298 80.4301 14.2995 79.4456 22.4752C79.2102 24.487 78.8249 26.6058 78.3541 28.7675C74.1592 27.7402 69.5791 26.9483 64.7636 26.4346C61.8742 22.4752 58.8779 18.8796 55.8602 15.7334C62.8373 9.24852 69.3865 5.69573 73.8382 5.69573V0.923004C67.9525 0.923004 60.2477 5.11787 52.4572 12.3947C44.6667 5.16067 36.9619 1.00861 31.0762 1.00861V5.78134C35.5065 5.78134 42.077 9.31273 49.0542 15.7548C46.0579 18.901 43.0616 22.4752 40.215 26.4346C35.3781 26.9483 30.798 27.7402 26.6031 28.7889C26.1109 26.6486 25.747 24.5726 25.4902 22.5822C24.4843 14.4065 25.7256 8.04999 28.615 6.3592C29.257 5.97396 30.0917 5.80274 31.0762 5.80274V1.03002C29.2784 1.03002 27.6519 1.41526 26.2393 2.22855C20.2252 5.69573 18.8769 16.5039 21.9802 30.073C8.66796 34.1823 0 40.7528 0 47.6872C0 54.6429 8.71076 61.2349 22.0658 65.3227C18.9839 78.9346 20.3536 89.7642 26.3891 93.2314C27.7803 94.0447 29.4069 94.4299 31.2046 94.4299C37.0903 94.4299 44.7951 90.2351 52.5856 82.9582C60.3761 90.1922 68.0809 94.3443 73.9666 94.3443C75.7644 94.3443 77.391 93.9591 78.8035 93.1458C84.8176 89.6786 86.1659 78.8704 83.0626 65.3013C96.332 61.2135 105 54.6215 105 47.6872V47.6872ZM77.1341 33.4118C76.3422 36.1727 75.3577 39.0192 74.2448 41.8657C73.3673 40.1535 72.447 38.4413 71.4411 36.7292C70.4566 35.017 69.4079 33.3476 68.3592 31.721C71.3983 32.1704 74.3304 32.7269 77.1341 33.4118ZM67.3318 56.2053C65.6625 59.0946 63.9503 61.8341 62.1739 64.381C58.9849 64.6592 55.7532 64.8091 52.5 64.8091C49.2682 64.8091 46.0365 64.6592 42.8689 64.4024C41.0925 61.8555 39.3589 59.1374 37.6896 56.2695C36.063 53.4658 34.5862 50.6193 33.2379 47.7514C34.5648 44.8835 36.063 42.0155 37.6682 39.2118C39.3376 36.3225 41.0497 33.583 42.8261 31.0361C46.0151 30.7579 49.2468 30.6081 52.5 30.6081C55.7318 30.6081 58.9635 30.7579 62.1311 31.0147C63.9075 33.5616 65.6411 36.2797 67.3104 39.1476C68.937 41.9513 70.4138 44.7978 71.7621 47.6658C70.4138 50.5337 68.937 53.4016 67.3318 56.2053ZM74.2448 53.423C75.4005 56.2909 76.385 59.1588 77.1983 61.9411C74.3946 62.626 71.4411 63.2039 68.3806 63.6533C69.4293 62.0053 70.478 60.3146 71.4625 58.581C72.447 56.8688 73.3673 55.1352 74.2448 53.423ZM52.5428 76.2593C50.5524 74.2047 48.562 71.9146 46.5929 69.4106C48.5192 69.4962 50.4882 69.5604 52.4786 69.5604C54.4904 69.5604 56.4808 69.5176 58.4285 69.4106C56.5022 71.9146 54.5118 74.2047 52.5428 76.2593ZM36.6194 63.6533C33.5803 63.2039 30.6482 62.6474 27.8445 61.9625C28.6364 59.2016 29.6209 56.3551 30.7338 53.5086C31.6113 55.2208 32.5316 56.933 33.5375 58.6452C34.5434 60.3574 35.5707 62.0267 36.6194 63.6533ZM52.4358 19.115C54.4262 21.1696 56.4166 23.4597 58.3856 25.9638C56.4594 25.8782 54.4904 25.814 52.5 25.814C50.4882 25.814 48.4978 25.8568 46.5501 25.9638C48.4764 23.4597 50.4668 21.1696 52.4358 19.115ZM36.598 31.721C35.5493 33.369 34.5006 35.0598 33.5161 36.7934C32.5316 38.5056 31.6113 40.2177 30.7338 41.9299C29.5781 39.062 28.5936 36.1941 27.7803 33.4118C30.584 32.7483 33.5375 32.1704 36.598 31.721V31.721ZM17.2289 58.5168C9.65247 55.285 4.75132 51.0473 4.75132 47.6872C4.75132 44.327 9.65247 40.0679 17.2289 36.8576C19.0695 36.0657 21.0813 35.3594 23.1574 34.6959C24.3773 38.8908 25.9825 43.2569 27.9729 47.73C26.0039 52.1817 24.4201 56.5263 23.2216 60.6998C21.1027 60.0363 19.0909 59.3086 17.2289 58.5168ZM28.7434 89.1007C25.8327 87.4313 24.5699 81.0748 25.5544 72.8991C25.7899 70.8873 26.1751 68.7685 26.6459 66.6068C30.8408 67.6342 35.4209 68.426 40.2364 68.9397C43.1258 72.8991 46.1221 76.4947 49.1398 79.6409C42.1627 86.1258 35.6135 89.6786 31.1618 89.6786C30.1987 89.6572 29.3854 89.4646 28.7434 89.1007V89.1007ZM79.5098 72.7921C80.5157 80.9678 79.2744 87.3243 76.385 89.0151C75.743 89.4004 74.9083 89.5716 73.9238 89.5716C69.4935 89.5716 62.923 86.0402 55.9458 79.5981C58.9421 76.4519 61.9384 72.8777 64.785 68.9183C69.6219 68.4046 74.202 67.6128 78.3969 66.564C78.8891 68.7257 79.2744 70.8017 79.5098 72.7921V72.7921ZM87.7497 58.5168C85.9091 59.3086 83.8973 60.0149 81.8212 60.6784C80.6013 56.4835 78.9961 52.1174 77.0057 47.6444C78.9747 43.1927 80.5585 38.848 81.757 34.6745C83.8759 35.338 85.8877 36.0657 87.7711 36.8576C95.3475 40.0893 100.249 44.327 100.249 47.6872C100.227 51.0473 95.3261 55.3064 87.7497 58.5168V58.5168Z" fill="#10B981"/>
<path d="M52.4786 57.468C57.8804 57.468 62.2595 53.089 62.2595 47.6872C62.2595 42.2853 57.8804 37.9063 52.4786 37.9063C47.0767 37.9063 42.6977 42.2853 42.6977 47.6872C42.6977 53.089 47.0767 57.468 52.4786 57.468Z" fill="#10B981"/>
</svg>
