<svg id="svg" version="1.1" xmlns="http://www.w3.org/2000/svg" xmlns:xlink="http://www.w3.org/1999/xlink" width="400" height="400" viewBox="0, 0, 400,400"><g id="svgg"><path id="path0" d="M23.699 199.900 L 23.800 355.800 59.151 355.800 L 94.501 355.800 94.551 343.703 L 94.600 331.606 71.600 331.503 L 48.600 331.400 48.600 199.800 L 48.600 68.200 71.500 68.097 C 89.399 68.016,94.406 67.885,94.428 67.497 C 94.461 66.928,94.454 45.260,94.422 44.500 C 94.404 44.104,87.042 44.000,58.999 44.000 L 23.599 44.000 23.699 199.900 M305.577 44.598 C 305.564 44.929,305.553 50.150,305.553 56.200 C 305.553 62.250,305.564 67.469,305.577 67.797 C 305.597 68.317,308.525 68.407,328.500 68.497 L 351.400 68.600 351.400 200.200 L 351.400 331.800 328.448 332.000 L 305.497 332.200 305.448 344.100 L 305.400 356.000 340.901 356.000 L 376.401 356.000 376.301 200.100 L 376.200 44.200 340.900 44.098 C 309.696 44.008,305.597 44.066,305.577 44.598 M91.800 56.000 L 91.800 65.000 68.800 65.200 L 45.800 65.400 45.800 199.800 L 45.800 334.200 68.800 334.400 L 91.800 334.600 91.800 343.800 L 91.800 353.000 59.200 353.000 L 26.600 353.000 26.498 200.400 C 26.441 116.470,26.481 47.574,26.586 47.298 C 26.737 46.899,33.490 46.816,59.288 46.898 L 91.800 47.000 91.800 56.000 M373.400 200.000 L 373.400 353.000 340.800 353.000 L 308.200 353.000 308.200 344.000 L 308.200 335.000 331.200 334.800 L 354.200 334.600 354.200 200.200 L 354.200 65.800 331.200 65.600 L 308.200 65.400 308.092 56.609 C 308.033 51.775,308.072 47.589,308.180 47.307 C 308.338 46.896,314.774 46.815,340.888 46.898 L 373.400 47.000 373.400 200.000 M261.000 101.388 C 241.720 104.742,227.921 116.481,223.371 133.400 C 216.318 159.621,231.804 184.782,258.200 189.992 C 259.520 190.253,261.355 190.631,262.277 190.833 C 266.085 191.666,278.615 191.083,283.800 189.831 C 284.240 189.725,285.860 189.343,287.400 188.982 C 295.183 187.156,307.692 181.208,308.207 179.087 C 308.325 178.599,308.372 170.010,308.311 160.000 L 308.200 141.800 293.900 141.695 L 279.600 141.590 279.594 151.895 C 279.586 164.678,280.040 164.000,271.497 164.000 C 260.386 164.000,254.026 156.923,254.491 145.076 C 254.925 134.017,260.426 128.366,271.057 128.060 C 278.168 127.855,282.267 129.555,287.960 135.069 C 290.718 137.740,290.059 137.912,295.534 133.098 C 298.100 130.842,302.675 126.863,305.700 124.256 C 312.216 118.640,312.099 119.209,307.647 114.804 C 296.246 103.521,278.340 98.371,261.000 101.388 M154.322 201.858 C 154.397 213.619,154.297 221.063,154.061 221.299 C 153.818 221.542,152.463 221.243,150.339 220.476 C 147.059 219.292,142.166 218.065,137.376 217.225 C 115.594 213.405,91.739 225.369,83.926 244.034 C 80.745 251.634,79.457 264.477,81.162 271.600 C 85.829 291.098,98.137 302.377,119.531 306.763 C 132.230 309.367,154.719 304.476,165.700 296.722 L 166.800 295.946 166.800 276.768 L 166.800 257.590 152.500 257.695 L 138.200 257.800 138.094 268.454 L 137.987 279.108 136.694 279.654 C 134.022 280.781,125.395 280.383,122.600 279.003 C 116.513 275.997,112.763 269.436,112.814 261.880 C 112.935 243.930,132.853 237.668,146.532 251.280 C 149.395 254.129,148.196 254.552,155.544 248.100 C 158.989 245.075,163.648 241.008,165.898 239.063 C 170.601 234.997,170.551 235.358,166.933 231.564 L 164.800 229.328 164.800 217.464 C 164.800 210.939,164.944 205.600,165.120 205.600 C 165.297 205.600,166.692 206.648,168.220 207.929 C 182.863 220.200,195.299 230.400,195.617 230.400 C 195.866 230.400,195.969 222.075,195.903 207.300 L 195.800 184.200 190.800 184.200 L 185.800 184.200 185.694 196.100 C 185.603 206.324,185.504 208.000,184.993 208.000 C 184.665 208.000,181.473 205.523,177.899 202.495 C 174.324 199.467,168.708 194.742,165.418 191.995 C 162.127 189.248,158.413 186.055,157.164 184.900 C 155.915 183.745,154.737 182.800,154.547 182.800 C 154.354 182.800,154.254 191.285,154.322 201.858 M223.200 184.331 C 199.124 191.140,201.046 225.358,225.758 229.874 C 235.941 231.735,248.905 224.370,251.236 215.400 C 252.537 210.393,252.773 209.133,252.786 207.120 C 252.881 191.827,237.792 180.204,223.200 184.331 M234.586 185.398 C 251.356 189.402,256.958 210.411,244.531 222.692 C 232.379 234.701,211.289 228.145,207.804 211.274 C 204.549 195.513,218.895 181.652,234.586 185.398 M194.400 206.376 C 194.400 217.803,194.265 227.231,194.100 227.327 C 193.935 227.423,191.910 225.926,189.600 224.000 C 187.290 222.074,180.540 216.448,174.600 211.497 C 168.660 206.546,163.665 202.575,163.500 202.671 C 163.335 202.768,163.200 208.417,163.200 215.224 C 163.200 222.031,163.104 227.600,162.987 227.600 C 162.655 227.600,156.236 223.082,155.906 222.616 C 155.744 222.387,155.609 214.145,155.606 204.300 C 155.599 184.300,155.425 185.305,158.444 187.924 C 159.410 188.762,165.240 193.653,171.400 198.793 C 177.560 203.932,183.390 208.826,184.356 209.669 C 185.322 210.511,186.267 211.200,186.456 211.200 C 186.645 211.200,186.800 205.560,186.800 198.667 C 186.800 191.773,186.920 186.013,187.067 185.867 C 187.213 185.720,188.923 185.600,190.867 185.600 L 194.400 185.600 194.400 206.376 M226.200 192.562 C 215.635 195.173,211.800 208.498,219.196 216.900 C 224.377 222.786,233.429 222.992,239.070 217.351 C 249.139 207.282,239.757 189.212,226.200 192.562 M233.790 194.430 C 242.442 197.668,244.749 209.679,238.013 216.412 C 230.020 224.399,216.800 218.409,216.800 206.800 C 216.800 197.428,225.286 191.249,233.790 194.430 " stroke="none" fill="#ececed" fill-rule="evenodd"></path><path id="path1" d="M88.271 92.262 C 88.122 92.411,88.000 113.113,88.000 138.267 L 88.000 184.000 121.000 184.000 C 150.067 184.000,154.000 183.928,154.000 183.400 C 154.000 183.070,154.248 182.800,154.551 182.800 C 154.854 182.800,155.326 183.070,155.600 183.400 C 155.954 183.827,156.892 184.000,158.849 184.000 L 161.600 184.000 161.600 170.204 L 161.600 156.408 142.100 156.304 L 122.600 156.200 122.400 124.200 L 122.200 92.200 105.371 92.096 C 96.115 92.038,88.420 92.113,88.271 92.262 M250.641 217.044 C 250.224 218.061,249.324 219.637,248.641 220.546 C 247.423 222.169,247.085 222.789,245.883 225.600 C 245.154 227.305,243.837 230.279,242.555 233.112 C 242.030 234.273,241.600 235.303,241.600 235.400 C 241.600 235.497,241.150 236.572,240.600 237.788 C 240.050 239.005,239.150 240.995,238.600 242.212 C 238.050 243.428,237.600 244.503,237.600 244.600 C 237.600 244.697,237.170 245.727,236.645 246.888 C 235.254 249.963,234.259 252.217,232.800 255.600 C 231.556 258.485,231.034 259.674,229.293 263.600 C 228.853 264.590,227.912 266.750,227.200 268.400 C 226.488 270.050,225.567 272.165,225.153 273.100 C 224.739 274.035,224.061 275.565,223.647 276.500 C 223.233 277.435,222.312 279.550,221.600 281.200 C 220.888 282.850,219.947 285.010,219.507 286.000 C 217.766 289.926,217.244 291.115,216.000 294.000 C 214.732 296.941,213.962 298.693,212.441 302.100 C 210.838 305.694,210.413 306.897,210.626 307.242 C 210.750 307.443,218.340 307.600,227.962 307.600 C 247.026 307.600,245.690 307.799,246.774 304.800 C 247.053 304.030,247.426 303.040,247.603 302.600 C 247.780 302.160,248.695 299.820,249.635 297.400 C 250.576 294.980,251.538 292.868,251.773 292.706 C 252.008 292.544,258.590 292.412,266.400 292.412 C 282.351 292.412,281.139 292.185,282.364 295.400 C 282.867 296.720,283.425 298.160,283.606 298.600 C 283.786 299.040,284.610 301.160,285.438 303.310 C 287.288 308.117,285.026 307.646,305.600 307.511 L 322.600 307.400 322.511 306.536 C 322.462 306.061,321.987 304.711,321.456 303.536 C 320.924 302.361,320.089 300.500,319.600 299.400 C 319.111 298.300,318.281 296.450,317.755 295.288 C 317.230 294.127,316.800 293.097,316.800 293.000 C 316.800 292.903,316.370 291.873,315.845 290.712 C 315.319 289.550,314.489 287.700,314.000 286.600 C 313.511 285.500,312.681 283.650,312.155 282.488 C 311.630 281.327,311.200 280.297,311.200 280.200 C 311.200 280.103,310.770 279.073,310.245 277.912 C 309.719 276.750,308.889 274.900,308.400 273.800 C 307.911 272.700,307.081 270.850,306.555 269.688 C 306.030 268.527,305.600 267.497,305.600 267.400 C 305.600 267.303,305.170 266.273,304.645 265.112 C 304.119 263.950,303.289 262.100,302.800 261.000 C 302.311 259.900,301.481 258.050,300.955 256.888 C 300.430 255.727,300.000 254.697,300.000 254.600 C 300.000 254.503,299.570 253.473,299.045 252.312 C 297.654 249.237,296.659 246.983,295.200 243.600 C 293.956 240.715,293.434 239.526,291.693 235.600 C 291.253 234.610,290.312 232.450,289.600 230.800 C 288.314 227.818,287.207 225.296,286.177 223.000 C 285.881 222.340,285.012 220.360,284.245 218.600 L 282.852 215.400 267.126 215.298 L 251.400 215.195 250.641 217.044 M267.049 255.500 C 267.172 255.885,267.460 256.650,267.690 257.200 C 268.258 258.563,268.556 259.327,269.842 262.730 C 271.196 266.311,271.124 266.388,266.400 266.388 C 261.375 266.388,261.360 266.362,263.509 261.200 C 263.738 260.650,264.231 259.390,264.605 258.400 C 264.979 257.410,265.441 256.195,265.632 255.700 C 266.048 254.625,266.738 254.528,267.049 255.500 " stroke="none" fill="#f2a30c" fill-rule="evenodd"></path><path id="path2" d="M0.000 200.000 L 0.000 400.000 200.000 400.000 L 400.000 400.000 400.000 200.000 L 400.000 0.000 200.000 0.000 L 0.000 0.000 0.000 200.000 M94.993 43.660 C 95.556 44.223,95.314 68.082,94.741 68.445 C 94.444 68.633,84.075 68.791,71.700 68.794 L 49.200 68.800 49.200 199.800 L 49.200 330.800 71.976 330.800 C 88.658 330.800,94.829 330.923,95.036 331.258 C 95.401 331.849,95.376 355.957,95.010 356.323 C 94.620 356.713,24.308 356.865,23.705 356.477 C 23.328 356.235,22.872 76.332,23.195 43.694 C 23.200 43.151,94.451 43.117,94.993 43.660 M376.295 43.527 C 376.672 43.766,377.129 324.021,376.805 356.300 C 376.798 356.997,305.394 357.038,304.963 356.340 C 304.386 355.407,304.664 331.932,305.256 331.557 C 305.555 331.367,315.925 331.209,328.300 331.206 L 350.800 331.200 350.800 200.210 L 350.800 69.219 328.033 69.110 C 315.511 69.049,305.149 68.883,305.007 68.740 C 304.808 68.541,304.653 52.001,304.781 44.729 C 304.793 44.057,305.060 43.591,305.500 43.476 C 306.741 43.151,375.782 43.201,376.295 43.527 M27.200 200.000 L 27.200 352.400 59.200 352.400 L 91.200 352.400 91.200 343.800 L 91.200 335.200 68.629 335.200 C 48.616 335.200,45.986 335.129,45.427 334.570 C 44.487 333.630,44.659 65.386,45.600 64.792 C 45.959 64.564,55.219 64.410,68.700 64.406 L 91.200 64.400 91.200 56.000 L 91.200 47.600 59.200 47.600 L 27.200 47.600 27.200 200.000 M308.800 56.200 L 308.800 64.800 331.371 64.800 C 351.384 64.800,354.014 64.871,354.573 65.430 C 355.513 66.370,355.341 334.614,354.400 335.208 C 354.041 335.436,344.781 335.590,331.300 335.594 L 308.800 335.600 308.800 344.000 L 308.800 352.400 340.800 352.400 L 372.800 352.400 372.800 200.000 L 372.800 47.600 340.800 47.600 L 308.800 47.600 308.800 56.200 M122.702 124.096 L 122.805 155.992 142.302 156.096 L 161.800 156.200 161.800 170.200 L 161.800 184.200 160.100 184.323 C 157.321 184.524,156.133 183.350,175.936 199.971 C 180.410 203.727,184.235 206.800,184.436 206.800 C 184.646 206.800,184.800 202.006,184.800 195.443 C 184.800 185.456,184.876 184.056,185.433 183.843 C 186.650 183.376,195.815 183.575,196.320 184.080 C 197.082 184.842,197.006 230.531,196.241 231.166 C 195.791 231.539,192.776 229.213,180.753 219.215 C 172.542 212.387,165.684 206.800,165.512 206.800 C 165.340 206.800,165.200 211.755,165.200 217.810 L 165.200 228.820 167.554 231.351 C 171.627 235.729,172.295 234.418,161.000 244.211 C 157.480 247.262,153.394 250.815,151.919 252.104 C 149.084 254.583,148.227 254.720,147.227 252.851 C 143.854 246.548,129.631 242.699,122.651 246.200 C 109.822 252.634,110.640 273.737,123.915 278.794 C 126.573 279.807,134.004 279.943,136.213 279.020 L 137.600 278.441 137.600 267.863 C 137.600 258.587,137.678 257.256,138.233 257.043 C 139.518 256.549,166.612 256.772,167.120 257.280 C 167.480 257.640,167.600 262.541,167.600 276.876 L 167.600 295.992 165.700 297.381 C 152.287 307.188,127.257 310.805,110.800 305.316 C 69.322 291.480,69.385 232.240,110.892 219.048 C 123.163 215.148,138.918 215.449,150.357 219.803 C 151.764 220.338,153.069 220.681,153.257 220.565 C 153.688 220.298,153.702 185.580,153.272 184.902 C 153.025 184.514,145.831 184.382,120.378 184.302 L 87.800 184.200 87.698 138.096 L 87.597 91.992 105.098 92.096 L 122.600 92.200 122.702 124.096 M282.590 101.055 C 289.690 102.404,295.670 104.805,301.173 108.518 C 304.528 110.780,312.000 117.972,312.000 118.938 C 312.000 119.690,291.702 137.668,290.557 137.931 C 290.244 138.002,288.883 136.967,287.533 135.629 C 273.040 121.270,252.860 129.327,255.196 148.539 C 256.393 158.388,262.026 163.422,271.800 163.379 C 274.525 163.366,277.075 163.155,277.700 162.888 L 278.800 162.420 278.800 152.243 C 278.800 146.645,278.909 141.781,279.043 141.433 C 279.258 140.872,280.955 140.800,294.043 140.800 L 308.800 140.800 308.800 160.397 L 308.800 179.995 307.100 181.234 C 304.530 183.108,297.118 186.604,292.400 188.168 C 254.813 200.628,221.204 180.602,221.201 145.744 C 221.198 123.283,235.339 106.343,258.400 101.182 C 263.485 100.044,276.897 99.974,282.590 101.055 M234.000 183.220 C 247.456 186.212,256.357 200.272,252.666 212.704 C 251.864 215.405,250.622 215.200,267.821 215.200 L 283.109 215.200 283.711 216.500 C 284.042 217.215,284.893 219.150,285.603 220.800 C 286.841 223.677,287.342 224.820,289.107 228.800 C 289.547 229.790,290.488 231.950,291.200 233.600 C 291.912 235.250,292.833 237.365,293.247 238.300 C 293.661 239.235,294.339 240.765,294.753 241.700 C 295.167 242.635,296.088 244.750,296.800 246.400 C 298.259 249.783,299.254 252.037,300.645 255.112 C 301.170 256.273,301.600 257.303,301.600 257.400 C 301.600 257.497,302.030 258.527,302.555 259.688 C 303.946 262.763,304.941 265.017,306.400 268.400 C 307.644 271.285,308.166 272.474,309.907 276.400 C 310.347 277.390,311.288 279.550,312.000 281.200 C 312.712 282.850,313.653 285.010,314.093 286.000 C 315.834 289.926,316.356 291.115,317.600 294.000 C 318.868 296.941,319.638 298.693,321.159 302.100 C 322.605 305.342,323.200 306.900,323.200 307.449 C 323.200 308.225,287.510 308.275,286.912 307.500 C 286.700 307.225,285.581 304.570,284.426 301.600 C 282.055 295.504,281.632 294.451,281.210 293.600 C 280.802 292.776,252.343 292.481,251.718 293.295 C 251.505 293.573,250.924 294.880,250.426 296.200 C 249.929 297.520,249.377 298.960,249.199 299.400 C 249.022 299.840,248.290 301.730,247.574 303.600 C 246.857 305.470,246.097 307.227,245.883 307.504 C 245.579 307.899,241.670 307.986,227.848 307.904 L 210.200 307.800 210.308 306.800 C 210.367 306.250,210.663 305.260,210.966 304.600 C 211.754 302.880,212.913 300.247,214.400 296.800 C 215.644 293.915,216.166 292.726,217.907 288.800 C 218.347 287.810,219.288 285.650,220.000 284.000 C 221.244 281.115,221.766 279.926,223.507 276.000 C 223.947 275.010,224.888 272.850,225.600 271.200 C 226.844 268.315,227.366 267.126,229.107 263.200 C 229.547 262.210,230.488 260.050,231.200 258.400 C 231.912 256.750,232.833 254.635,233.247 253.700 C 233.661 252.765,234.339 251.235,234.753 250.300 C 235.167 249.365,236.088 247.250,236.800 245.600 C 237.512 243.950,238.412 241.880,238.800 241.000 C 239.188 240.120,240.088 238.050,240.800 236.400 C 242.259 233.017,243.254 230.763,244.645 227.688 C 245.986 224.723,245.864 224.538,243.643 226.168 C 227.803 237.796,205.467 226.464,205.467 206.800 C 205.467 191.735,219.636 180.025,234.000 183.220 M223.645 186.232 C 208.270 190.367,202.840 210.039,213.910 221.501 C 225.863 233.877,246.668 228.032,250.213 211.303 C 253.536 195.625,239.160 182.060,223.645 186.232 M187.600 198.951 C 187.600 208.856,187.489 211.594,187.072 211.940 C 186.665 212.278,185.004 211.083,179.772 206.684 C 176.048 203.553,169.580 198.131,165.400 194.636 C 161.220 191.142,157.485 188.011,157.100 187.679 C 156.435 187.106,156.401 187.958,156.416 204.838 L 156.433 222.600 159.295 224.400 C 160.869 225.390,162.299 226.259,162.473 226.331 C 162.646 226.404,162.836 220.914,162.894 214.131 C 162.972 205.069,163.124 201.800,163.466 201.800 C 163.723 201.800,170.537 207.290,178.609 214.000 C 186.681 220.710,193.447 226.260,193.643 226.333 C 193.849 226.410,194.000 218.016,194.000 206.433 L 194.000 186.400 190.800 186.400 L 187.600 186.400 187.600 198.951 M235.688 193.115 C 249.419 199.877,245.184 221.335,230.000 221.934 C 214.897 222.530,208.900 201.572,221.878 193.552 C 225.764 191.150,231.342 190.974,235.688 193.115 M225.164 194.948 C 218.902 197.187,215.579 205.731,218.499 212.083 C 224.157 224.391,241.186 220.406,241.198 206.771 C 241.205 198.171,233.024 192.139,225.164 194.948 M265.751 256.300 C 265.628 256.685,265.381 257.360,265.202 257.800 C 264.025 260.691,262.396 265.048,262.398 265.300 C 262.399 265.465,264.200 265.600,266.400 265.600 C 268.600 265.600,270.400 265.468,270.400 265.306 C 270.400 264.580,266.623 255.600,266.317 255.600 C 266.129 255.600,265.874 255.915,265.751 256.300 " stroke="none" fill="#141414" fill-rule="evenodd"></path><path id="path3" d="M23.043 43.833 C 22.909 44.181,22.828 45.216,22.863 46.133 L 22.926 47.800 23.163 45.800 L 23.400 43.800 58.522 43.698 C 82.278 43.629,93.896 43.730,94.422 44.012 C 94.859 44.246,95.200 44.267,95.200 44.061 C 95.200 42.921,23.480 42.694,23.043 43.833 M305.500 43.476 C 305.115 43.576,304.800 43.832,304.800 44.043 C 304.800 44.280,305.099 44.268,305.574 44.014 C 306.647 43.440,374.953 43.440,376.026 44.014 C 376.471 44.252,376.800 44.270,376.800 44.057 C 376.800 43.853,376.515 43.576,376.167 43.443 C 375.443 43.165,306.566 43.197,305.500 43.476 M26.800 200.000 L 26.800 352.805 59.100 352.702 L 91.400 352.600 91.400 343.800 L 91.400 335.000 68.746 334.897 C 50.301 334.813,46.009 334.693,45.644 334.253 C 45.314 333.855,45.222 298.154,45.298 199.271 C 45.354 125.328,45.278 65.138,45.128 65.515 C 44.470 67.173,44.768 333.911,45.429 334.571 C 45.985 335.128,48.642 335.200,68.629 335.200 L 91.200 335.200 91.200 343.800 L 91.200 352.400 59.200 352.400 L 27.200 352.400 27.200 200.000 L 27.200 47.600 59.200 47.600 L 91.200 47.600 91.200 55.997 L 91.200 64.393 68.600 64.502 L 46.000 64.610 68.700 64.605 L 91.400 64.600 91.400 56.000 L 91.400 47.400 59.100 47.298 L 26.800 47.195 26.800 200.000 M308.579 47.710 C 308.471 47.991,308.432 51.996,308.492 56.610 L 308.600 65.000 331.254 65.103 C 349.699 65.187,353.991 65.307,354.356 65.747 C 354.686 66.145,354.778 101.846,354.702 200.729 C 354.646 274.672,354.722 334.862,354.872 334.485 C 355.530 332.827,355.232 66.089,354.571 65.429 C 354.015 64.872,351.358 64.800,331.371 64.800 L 308.800 64.800 308.800 56.200 L 308.800 47.600 340.800 47.600 L 372.800 47.600 372.800 200.000 L 372.800 352.400 340.800 352.400 L 308.800 352.400 308.800 344.003 L 308.800 335.607 331.400 335.498 L 354.000 335.390 331.300 335.395 L 308.600 335.400 308.600 344.000 L 308.600 352.600 340.900 352.702 L 373.200 352.805 373.200 200.002 L 373.200 47.200 340.987 47.200 C 315.238 47.200,308.736 47.302,308.579 47.710 M94.388 68.016 C 94.044 68.234,84.476 68.390,71.300 68.394 L 48.800 68.400 48.800 199.797 L 48.800 331.194 71.900 331.297 L 95.000 331.400 95.240 333.200 L 95.480 335.000 95.540 333.380 C 95.641 330.661,96.910 330.800,71.920 330.800 L 49.200 330.800 49.200 199.800 L 49.200 68.800 71.700 68.794 C 91.963 68.788,95.960 68.627,95.177 67.843 C 95.067 67.733,94.712 67.811,94.388 68.016 M328.300 69.100 L 350.800 69.207 350.800 200.203 L 350.800 331.200 328.300 331.206 C 312.949 331.210,305.609 331.348,305.200 331.641 C 304.729 331.977,304.816 332.020,305.600 331.840 C 306.150 331.714,316.635 331.608,328.900 331.605 L 351.200 331.600 351.200 200.200 L 351.200 68.800 328.500 68.897 L 305.800 68.993 328.300 69.100 M87.698 138.100 L 87.800 184.200 120.378 184.302 C 145.831 184.382,153.025 184.514,153.272 184.902 C 153.820 185.766,153.674 220.166,153.120 220.720 C 152.799 221.041,152.785 221.200,153.077 221.200 C 153.318 221.200,153.624 220.915,153.757 220.567 C 154.073 219.745,154.064 186.080,153.748 184.900 L 153.507 184.000 120.750 184.000 L 87.993 184.000 88.097 138.000 C 88.153 112.700,88.064 92.000,87.898 92.000 C 87.732 92.000,87.642 112.745,87.698 138.100 M122.400 124.138 L 122.600 156.200 142.100 156.304 L 161.600 156.408 161.600 170.204 L 161.600 184.000 159.400 184.000 C 156.559 184.000,156.607 184.175,160.300 187.273 C 162.005 188.703,163.985 190.367,164.700 190.972 C 165.415 191.576,166.000 191.981,166.000 191.871 C 166.000 191.761,164.290 190.208,162.200 188.421 C 157.879 184.725,157.760 184.492,160.100 184.323 L 161.800 184.200 161.800 170.200 L 161.800 156.200 142.300 156.096 L 122.800 155.992 122.800 124.220 C 122.800 106.745,122.665 92.364,122.500 92.262 C 122.335 92.160,122.290 106.504,122.400 124.138 M265.600 100.411 C 262.847 100.549,264.708 100.639,271.000 100.670 C 276.280 100.696,280.420 100.661,280.200 100.591 C 279.365 100.329,269.624 100.209,265.600 100.411 M258.600 101.200 C 257.522 101.474,257.502 101.506,258.400 101.513 C 258.950 101.517,259.850 101.376,260.400 101.200 C 261.744 100.769,260.292 100.769,258.600 101.200 M281.800 101.200 C 283.492 101.631,284.944 101.631,283.600 101.200 C 283.050 101.024,282.150 100.883,281.600 100.887 C 280.702 100.894,280.722 100.926,281.800 101.200 M255.000 102.000 C 254.496 102.217,254.422 102.344,254.800 102.344 C 255.130 102.344,255.760 102.189,256.200 102.000 C 256.704 101.783,256.778 101.656,256.400 101.656 C 256.070 101.656,255.440 101.811,255.000 102.000 M285.400 102.000 C 285.840 102.189,286.560 102.338,287.000 102.332 C 287.643 102.323,287.604 102.257,286.800 102.000 C 285.432 101.562,284.381 101.562,285.400 102.000 M252.400 102.800 C 251.576 103.064,251.541 103.126,252.200 103.154 C 252.640 103.173,253.270 103.013,253.600 102.800 C 254.301 102.347,253.814 102.347,252.400 102.800 M247.400 104.778 C 246.520 105.195,245.913 105.550,246.051 105.568 C 246.440 105.618,249.200 104.414,249.200 104.195 C 249.200 103.927,249.199 103.927,247.400 104.778 M292.833 104.153 C 293.241 104.527,298.800 107.189,298.800 107.010 C 298.800 106.787,293.378 104.000,292.943 104.000 C 292.791 104.000,292.742 104.069,292.833 104.153 M242.976 107.029 C 240.532 108.500,236.400 111.494,236.400 111.796 C 236.400 111.889,237.795 110.964,239.500 109.740 C 241.205 108.517,243.275 107.171,244.100 106.750 C 244.925 106.328,245.600 105.897,245.600 105.792 C 245.600 105.472,245.440 105.548,242.976 107.029 M301.600 108.925 C 301.600 109.023,302.455 109.791,303.500 110.632 C 304.545 111.472,305.040 111.745,304.600 111.237 C 303.774 110.283,301.600 108.608,301.600 108.925 M233.543 114.297 C 231.162 116.807,228.655 120.088,227.199 122.600 C 225.803 125.009,226.822 123.803,229.218 120.211 C 230.387 118.457,232.388 115.949,233.664 114.636 C 234.940 113.324,235.926 112.193,235.856 112.122 C 235.785 112.052,234.744 113.030,233.543 114.297 M308.555 115.133 C 312.046 118.954,312.086 119.091,310.200 120.746 C 309.430 121.422,308.800 122.108,308.800 122.269 C 308.800 122.430,309.520 121.859,310.400 121.000 C 312.505 118.945,312.513 118.972,308.755 115.124 L 305.509 111.800 308.555 115.133 M303.600 126.456 C 301.070 128.676,298.482 130.929,297.850 131.463 C 297.217 131.996,296.767 132.497,296.850 132.576 C 296.988 132.708,305.971 124.996,307.789 123.186 C 309.699 121.283,307.842 122.733,303.600 126.456 M224.650 127.591 C 223.747 129.847,223.887 130.183,224.837 128.042 C 225.266 127.075,225.545 126.212,225.458 126.125 C 225.371 126.038,225.008 126.698,224.650 127.591 M268.486 128.340 C 267.983 128.483,269.693 128.610,272.286 128.621 C 275.465 128.636,276.479 128.546,275.400 128.345 C 273.468 127.984,269.745 127.982,268.486 128.340 M264.300 129.429 C 263.695 129.757,263.200 130.116,263.200 130.227 C 263.200 130.338,263.594 130.217,264.077 129.959 C 264.559 129.701,265.414 129.350,265.977 129.179 C 266.777 128.936,266.826 128.865,266.200 128.850 C 265.760 128.840,264.905 129.101,264.300 129.429 M223.013 132.213 C 222.627 133.441,222.413 134.546,222.536 134.670 C 222.660 134.793,222.874 134.378,223.013 133.747 C 223.152 133.116,223.455 132.099,223.686 131.487 C 223.918 130.875,224.019 130.286,223.911 130.178 C 223.804 130.070,223.399 130.986,223.013 132.213 M259.363 132.963 C 257.953 134.373,256.800 135.737,256.800 135.994 C 256.800 136.252,257.390 135.688,258.112 134.743 C 258.833 133.797,260.197 132.433,261.143 131.712 C 262.088 130.990,262.652 130.400,262.394 130.400 C 262.137 130.400,260.773 131.553,259.363 132.963 M281.200 130.590 C 281.200 130.694,281.695 131.036,282.300 131.350 C 282.905 131.663,284.255 132.673,285.300 133.594 C 286.345 134.515,287.200 135.139,287.200 134.981 C 287.200 134.606,285.433 133.052,283.328 131.574 C 281.701 130.432,281.200 130.200,281.200 130.590 M293.600 135.200 C 290.759 137.794,289.965 138.056,289.023 136.711 C 288.680 136.222,288.400 136.014,288.400 136.249 C 288.400 136.844,289.745 138.001,290.431 137.997 C 290.939 137.993,296.889 132.845,296.400 132.832 C 296.290 132.829,295.030 133.895,293.600 135.200 M221.818 137.018 C 221.665 138.039,221.622 138.955,221.722 139.055 C 221.822 139.155,222.029 138.402,222.182 137.382 C 222.335 136.361,222.378 135.445,222.278 135.345 C 222.178 135.245,221.971 135.998,221.818 137.018 M255.789 138.288 C 255.447 139.106,255.220 140.106,255.284 140.510 C 255.348 140.914,255.691 140.244,256.048 139.022 C 256.795 136.457,256.685 136.144,255.789 138.288 M221.362 145.800 C 221.362 149.320,221.424 150.706,221.498 148.881 C 221.572 147.056,221.572 144.176,221.497 142.481 C 221.422 140.786,221.361 142.280,221.362 145.800 M293.580 141.100 C 304.628 141.183,308.235 141.330,308.473 141.705 C 308.695 142.054,308.790 141.994,308.794 141.500 C 308.800 140.844,307.862 140.806,293.900 140.895 L 279.000 140.990 293.580 141.100 M254.606 143.700 C 254.468 144.855,254.514 146.790,254.708 148.000 C 255.022 149.953,255.058 149.718,255.031 145.900 C 254.996 141.001,254.955 140.788,254.606 143.700 M278.893 151.913 C 278.800 162.401,278.798 162.427,277.900 162.788 L 277.000 163.149 277.913 163.175 C 279.224 163.211,279.225 163.201,279.100 151.793 L 278.986 141.400 278.893 151.913 M255.260 151.109 C 255.197 152.058,257.237 156.929,257.858 157.312 C 258.055 157.434,257.636 156.338,256.926 154.877 C 256.216 153.415,255.565 151.765,255.478 151.210 C 255.333 150.284,255.315 150.276,255.260 151.109 M221.872 154.600 C 221.999 155.700,222.169 156.675,222.251 156.767 C 222.532 157.082,222.320 154.599,221.980 153.600 C 221.751 152.926,221.716 153.251,221.872 154.600 M222.644 158.200 C 222.973 159.671,223.202 159.990,223.194 158.967 C 223.191 158.545,223.005 157.930,222.782 157.600 C 222.485 157.162,222.448 157.324,222.644 158.200 M259.551 159.288 C 260.885 160.725,265.002 163.200,266.056 163.200 C 266.355 163.200,265.494 162.676,264.142 162.036 C 262.790 161.397,260.900 160.190,259.942 159.354 L 258.200 157.834 259.551 159.288 M267.517 163.672 C 268.380 164.016,274.692 164.007,275.926 163.660 C 276.435 163.517,274.598 163.400,271.843 163.400 C 269.089 163.400,267.142 163.522,267.517 163.672 M224.910 164.700 C 224.997 164.865,225.468 165.875,225.956 166.944 C 226.445 168.013,226.923 168.810,227.019 168.715 C 227.215 168.519,225.231 164.400,224.941 164.400 C 224.837 164.400,224.824 164.535,224.910 164.700 M227.807 170.300 C 229.174 172.452,231.571 175.421,233.054 176.800 C 233.994 177.673,233.754 177.297,232.418 175.800 C 231.240 174.480,229.648 172.455,228.881 171.300 C 227.460 169.159,226.536 168.299,227.807 170.300 M236.400 180.172 C 237.875 181.790,244.000 186.048,244.000 185.456 C 244.000 185.361,243.055 184.680,241.900 183.942 C 240.745 183.204,238.810 181.807,237.600 180.838 C 236.348 179.834,235.831 179.548,236.400 180.172 M307.669 180.402 C 307.158 180.829,305.403 181.915,303.769 182.817 C 302.136 183.718,300.800 184.546,300.800 184.656 C 300.800 185.025,306.450 181.814,307.733 180.716 C 308.430 180.120,308.910 179.631,308.800 179.630 C 308.690 179.628,308.181 179.976,307.669 180.402 M227.712 183.095 C 228.764 183.177,230.384 183.176,231.312 183.092 C 232.240 183.008,231.380 182.941,229.400 182.942 C 227.420 182.943,226.660 183.012,227.712 183.095 M223.200 183.600 C 222.408 183.854,222.367 183.920,223.000 183.920 C 223.440 183.920,224.250 183.776,224.800 183.600 C 225.592 183.346,225.633 183.280,225.000 183.280 C 224.560 183.280,223.750 183.424,223.200 183.600 M234.800 183.776 C 237.893 184.752,238.742 184.909,237.295 184.239 C 236.577 183.906,235.317 183.539,234.495 183.421 C 233.067 183.218,233.080 183.234,234.800 183.776 M190.800 183.982 L 196.200 184.200 196.304 206.800 C 196.369 221.058,196.260 229.823,196.009 230.545 C 195.664 231.537,195.690 231.623,196.205 231.196 C 197.002 230.534,197.113 184.873,196.320 184.080 C 195.987 183.747,194.245 183.625,190.620 183.682 L 185.400 183.764 190.800 183.982 M184.894 195.300 C 184.839 201.968,184.645 206.800,184.432 206.800 C 184.229 206.800,181.169 204.360,177.632 201.378 C 174.094 198.395,171.200 196.075,171.200 196.220 C 171.200 196.366,171.605 196.804,172.100 197.193 C 172.595 197.583,175.593 200.092,178.763 202.768 C 181.970 205.476,184.678 207.482,184.869 207.291 C 185.058 207.102,185.162 201.739,185.100 195.374 L 184.987 183.800 184.894 195.300 M218.300 185.429 C 216.749 186.270,216.925 186.561,218.500 185.759 C 220.008 184.993,220.275 184.794,219.767 184.816 C 219.565 184.825,218.905 185.101,218.300 185.429 M238.800 184.971 C 238.800 185.051,239.700 185.587,240.800 186.162 C 243.033 187.329,243.515 187.298,241.500 186.117 C 240.081 185.285,238.800 184.741,238.800 184.971 M298.500 185.434 C 297.785 185.746,297.200 186.094,297.200 186.207 C 297.200 186.415,300.006 185.327,300.346 184.987 C 300.686 184.647,299.820 184.857,298.500 185.434 M227.911 185.493 C 228.851 185.578,230.291 185.577,231.111 185.491 C 231.930 185.405,231.160 185.336,229.400 185.337 C 227.640 185.339,226.970 185.409,227.911 185.493 M223.200 186.006 C 222.778 186.282,223.015 186.323,224.000 186.142 C 225.725 185.825,226.051 185.598,224.767 185.606 C 224.235 185.609,223.530 185.789,223.200 186.006 M233.233 185.743 C 233.325 185.821,234.030 186.001,234.800 186.142 C 235.785 186.323,236.022 186.282,235.600 186.006 C 235.058 185.650,232.837 185.403,233.233 185.743 M245.011 186.134 C 245.896 186.732,247.200 187.258,247.200 187.017 C 247.200 186.837,244.798 185.600,244.450 185.600 C 244.324 185.600,244.577 185.840,245.011 186.134 M187.200 198.776 C 187.200 205.803,187.060 211.639,186.889 211.745 C 186.618 211.913,184.191 209.975,175.264 202.463 C 174.129 201.507,173.200 200.824,173.200 200.945 C 173.200 201.709,186.605 212.328,187.076 211.937 C 187.488 211.595,187.600 208.814,187.600 198.951 L 187.600 186.400 190.800 186.400 L 194.000 186.400 194.000 206.400 C 194.000 217.400,193.890 226.400,193.754 226.400 C 193.619 226.400,190.334 223.757,186.454 220.526 C 176.385 212.141,174.913 210.947,175.698 211.806 C 177.178 213.421,193.816 227.094,194.100 226.928 C 194.265 226.832,194.400 217.583,194.400 206.376 L 194.400 186.000 190.800 186.000 L 187.200 186.000 187.200 198.776 M214.508 187.953 C 212.440 189.587,209.809 192.451,209.135 193.800 C 208.915 194.240,209.236 193.970,209.848 193.200 C 211.323 191.345,213.868 188.817,215.600 187.485 C 216.370 186.893,216.881 186.407,216.736 186.404 C 216.591 186.402,215.588 187.099,214.508 187.953 M219.013 187.711 C 215.368 189.679,209.587 195.865,209.604 197.778 C 209.606 198.010,210.156 197.244,210.826 196.076 C 212.605 192.974,216.342 189.485,219.668 187.821 C 221.230 187.039,222.258 186.405,221.954 186.411 C 221.649 186.417,220.326 187.002,219.013 187.711 M239.076 187.793 C 242.244 189.377,245.180 192.015,247.327 195.202 C 248.137 196.405,248.800 197.244,248.800 197.067 C 248.800 194.680,239.477 186.400,236.790 186.400 C 236.517 186.400,237.545 187.027,239.076 187.793 M156.096 204.867 C 156.186 220.527,156.280 222.955,156.800 223.097 C 157.249 223.220,157.273 223.171,156.896 222.904 C 156.500 222.625,156.414 218.736,156.496 204.893 L 156.600 187.239 164.700 194.034 C 169.155 197.771,172.790 200.687,172.778 200.514 C 172.765 200.341,171.820 199.452,170.678 198.538 C 169.535 197.624,165.900 194.610,162.600 191.841 C 159.300 189.071,156.463 186.804,156.296 186.802 C 156.129 186.801,156.039 194.930,156.096 204.867 M245.891 189.911 C 248.629 192.657,251.987 198.211,252.006 200.029 C 252.009 200.343,252.195 200.870,252.418 201.200 C 253.323 202.537,252.258 199.284,250.781 196.200 C 249.208 192.915,246.545 189.524,244.281 187.920 C 243.576 187.422,244.301 188.318,245.891 189.911 M248.400 187.766 C 248.950 188.060,249.850 188.412,250.400 188.549 C 250.950 188.686,250.680 188.452,249.800 188.029 C 247.990 187.158,246.868 186.948,248.400 187.766 M251.633 188.944 C 251.725 189.023,252.340 189.208,253.000 189.356 C 253.876 189.552,254.038 189.515,253.600 189.218 C 253.060 188.853,251.232 188.598,251.633 188.944 M287.800 189.200 C 286.781 189.638,287.832 189.638,289.200 189.200 C 290.004 188.943,290.043 188.877,289.400 188.868 C 288.960 188.862,288.240 189.011,287.800 189.200 M255.200 190.000 C 256.568 190.438,257.619 190.438,256.600 190.000 C 256.160 189.811,255.440 189.662,255.000 189.668 C 254.357 189.677,254.396 189.743,255.200 190.000 M284.600 190.000 C 283.581 190.438,284.632 190.438,286.000 190.000 C 286.804 189.743,286.843 189.677,286.200 189.668 C 285.760 189.662,285.040 189.811,284.600 190.000 M258.600 190.800 C 260.292 191.231,261.744 191.231,260.400 190.800 C 259.850 190.624,258.950 190.483,258.400 190.487 C 257.502 190.494,257.522 190.526,258.600 190.800 M280.400 190.800 C 279.056 191.231,280.508 191.231,282.200 190.800 C 283.278 190.526,283.298 190.494,282.400 190.487 C 281.850 190.483,280.950 190.624,280.400 190.800 M265.807 191.595 C 268.011 191.730,271.881 191.729,274.407 191.594 C 278.058 191.399,277.235 191.349,270.400 191.350 C 264.203 191.351,262.920 191.419,265.807 191.595 M227.911 191.893 C 228.851 191.978,230.291 191.977,231.111 191.891 C 231.930 191.805,231.160 191.736,229.400 191.737 C 227.640 191.739,226.970 191.809,227.911 191.893 M166.520 192.264 C 166.675 192.519,167.739 193.509,168.883 194.464 C 170.027 195.419,170.836 195.991,170.680 195.736 C 170.525 195.481,169.461 194.491,168.317 193.536 C 167.173 192.581,166.364 192.009,166.520 192.264 M223.307 192.786 C 221.767 193.485,217.402 197.135,217.722 197.456 C 217.797 197.530,218.767 196.714,219.879 195.642 C 221.089 194.476,222.765 193.361,224.051 192.867 C 225.233 192.413,225.930 192.036,225.600 192.030 C 225.270 192.023,224.238 192.363,223.307 192.786 M228.000 194.046 C 226.937 194.235,227.249 194.307,229.300 194.347 C 230.785 194.376,232.000 194.330,232.000 194.244 C 232.000 193.934,229.369 193.804,228.000 194.046 M238.000 194.758 C 238.770 195.444,239.912 196.589,240.538 197.302 C 241.653 198.573,241.660 198.575,240.877 197.400 C 240.057 196.168,238.812 194.964,237.400 194.037 C 236.960 193.748,237.230 194.072,238.000 194.758 M234.208 195.343 C 235.373 195.885,237.011 197.162,238.108 198.382 C 239.149 199.540,240.000 200.323,240.000 200.123 C 240.000 198.885,234.277 194.392,232.716 194.404 C 232.432 194.406,233.104 194.829,234.208 195.343 M207.781 196.037 C 207.429 196.718,207.239 197.373,207.359 197.493 C 207.479 197.613,207.768 197.210,208.001 196.598 C 208.234 195.986,208.519 195.331,208.636 195.142 C 208.752 194.954,208.751 194.800,208.634 194.800 C 208.517 194.800,208.133 195.357,207.781 196.037 M221.653 196.647 C 219.819 198.217,217.599 201.715,217.621 203.000 C 217.629 203.468,217.860 203.169,218.178 202.279 C 218.962 200.079,220.685 197.754,222.541 196.389 C 223.430 195.735,223.975 195.200,223.751 195.200 C 223.527 195.200,222.583 195.851,221.653 196.647 M216.600 199.200 C 216.259 199.860,216.069 200.400,216.179 200.400 C 216.289 200.400,216.659 199.860,217.000 199.200 C 217.341 198.540,217.531 198.000,217.421 198.000 C 217.311 198.000,216.941 198.540,216.600 199.200 M209.085 198.700 C 208.607 199.586,207.949 202.807,208.115 203.452 C 208.261 204.020,208.319 203.960,208.358 203.200 C 208.386 202.650,208.668 201.345,208.985 200.300 C 209.496 198.615,209.544 197.850,209.085 198.700 M242.497 200.700 C 243.219 202.281,243.368 203.357,243.382 207.114 C 243.396 210.495,243.484 211.248,243.733 210.114 C 244.424 206.966,243.050 198.800,241.828 198.800 C 241.718 198.800,242.019 199.655,242.497 200.700 M249.844 200.600 C 250.173 202.071,250.402 202.390,250.394 201.367 C 250.391 200.945,250.205 200.330,249.982 200.000 C 249.685 199.562,249.648 199.724,249.844 200.600 M205.822 201.822 C 205.672 202.625,205.628 203.362,205.726 203.460 C 205.824 203.557,206.027 202.981,206.178 202.178 C 206.328 201.375,206.372 200.638,206.274 200.540 C 206.176 200.443,205.973 201.019,205.822 201.822 M240.644 202.547 C 241.123 203.954,241.249 205.380,241.116 207.909 C 241.017 209.804,241.072 211.005,241.240 210.577 C 242.044 208.521,241.454 202.239,240.341 201.015 C 240.148 200.804,240.285 201.493,240.644 202.547 M163.067 201.867 C 162.920 202.013,162.800 207.593,162.800 214.267 C 162.800 220.940,162.700 226.400,162.578 226.400 C 162.456 226.400,161.261 225.656,159.921 224.747 C 158.582 223.837,157.593 223.264,157.722 223.474 C 158.163 224.188,162.691 227.176,162.946 226.921 C 163.086 226.781,163.200 221.117,163.200 214.333 C 163.200 207.550,163.321 202.000,163.469 202.000 C 163.616 202.000,164.111 202.315,164.569 202.700 C 165.399 203.399,165.399 203.399,164.638 202.500 C 163.840 201.557,163.509 201.424,163.067 201.867 M250.598 206.865 C 250.598 209.344,250.711 210.839,250.851 210.186 C 251.185 208.630,251.190 204.447,250.860 203.279 C 250.717 202.773,250.599 204.387,250.598 206.865 M252.946 207.000 C 252.944 210.902,252.994 211.325,253.215 209.259 C 253.364 207.862,253.365 205.702,253.217 204.459 C 253.014 202.755,252.948 203.378,252.946 207.000 M165.720 203.464 C 165.875 203.719,166.939 204.709,168.083 205.664 C 169.227 206.619,170.036 207.191,169.880 206.936 C 169.725 206.681,168.661 205.691,167.517 204.736 C 166.373 203.781,165.564 203.209,165.720 203.464 M214.942 207.000 C 214.941 208.980,215.008 209.840,215.092 208.912 C 215.176 207.984,215.177 206.364,215.095 205.312 C 215.012 204.260,214.943 205.020,214.942 207.000 M217.072 205.500 C 216.945 206.325,216.980 207.630,217.150 208.400 C 217.397 209.521,217.461 209.222,217.470 206.900 C 217.484 203.625,217.403 203.342,217.072 205.500 M205.328 206.800 C 205.328 208.230,205.401 208.815,205.489 208.100 C 205.578 207.385,205.578 206.215,205.489 205.500 C 205.401 204.785,205.328 205.370,205.328 206.800 M207.709 206.800 C 207.709 207.790,207.787 208.195,207.882 207.700 C 207.978 207.205,207.978 206.395,207.882 205.900 C 207.787 205.405,207.709 205.810,207.709 206.800 M165.068 206.266 C 164.920 206.413,164.800 211.545,164.800 217.670 L 164.800 228.808 166.900 231.168 C 168.055 232.467,169.162 233.545,169.361 233.565 C 169.559 233.584,168.704 232.533,167.461 231.230 L 165.200 228.859 165.200 217.830 C 165.200 211.763,165.343 206.800,165.518 206.800 C 165.782 206.800,171.398 211.398,183.700 221.686 C 184.745 222.559,185.600 223.177,185.600 223.057 C 185.600 222.938,181.325 219.290,176.100 214.951 C 170.875 210.611,166.315 206.822,165.968 206.530 C 165.620 206.237,165.215 206.119,165.068 206.266 M170.520 207.464 C 170.675 207.719,171.739 208.709,172.883 209.664 C 174.027 210.619,174.836 211.191,174.680 210.936 C 174.525 210.681,173.461 209.691,172.317 208.736 C 171.173 207.781,170.364 207.209,170.520 207.464 M208.028 210.633 C 208.044 211.275,208.216 212.160,208.410 212.600 C 208.647 213.134,208.686 212.802,208.527 211.600 C 208.246 209.480,207.988 208.980,208.028 210.633 M205.680 210.600 C 205.680 211.040,205.824 211.850,206.000 212.400 C 206.254 213.192,206.320 213.233,206.320 212.600 C 206.320 212.160,206.176 211.350,206.000 210.800 C 205.746 210.008,205.680 209.967,205.680 210.600 M217.609 210.704 C 217.576 212.560,222.201 218.400,223.703 218.400 C 223.932 218.400,223.397 217.876,222.513 217.236 C 220.687 215.913,219.536 214.428,218.402 211.929 C 217.971 210.978,217.614 210.427,217.609 210.704 M240.400 211.865 C 240.400 212.736,237.848 216.043,236.292 217.187 C 235.385 217.854,234.825 218.400,235.049 218.400 C 236.386 218.400,241.376 212.443,240.649 211.715 C 240.512 211.579,240.400 211.646,240.400 211.865 M250.046 212.067 C 250.021 212.434,249.896 213.064,249.770 213.467 C 249.552 214.162,249.563 214.163,249.997 213.487 C 250.248 213.096,250.373 212.466,250.273 212.087 C 250.111 211.468,250.088 211.466,250.046 212.067 M241.834 214.237 C 241.204 215.441,239.768 217.258,238.644 218.274 C 237.520 219.290,236.971 219.926,237.425 219.687 C 239.239 218.731,243.737 212.804,243.118 212.185 C 243.043 212.109,242.465 213.033,241.834 214.237 M252.249 212.615 C 252.112 212.973,252.015 213.566,252.034 213.933 C 252.053 214.300,252.227 214.069,252.421 213.420 C 252.798 212.158,252.665 211.533,252.249 212.615 M248.573 216.059 C 248.160 216.976,247.321 218.418,246.708 219.263 C 246.096 220.108,245.731 220.800,245.897 220.799 C 246.447 220.798,249.840 214.907,249.492 214.559 C 249.400 214.467,248.987 215.142,248.573 216.059 M209.604 215.822 C 209.592 217.089,213.874 222.495,216.162 224.104 C 216.843 224.582,216.200 223.785,214.734 222.332 C 213.267 220.879,211.514 218.725,210.838 217.545 C 210.161 216.365,209.606 215.590,209.604 215.822 M207.200 216.153 C 207.200 216.582,208.390 218.800,208.621 218.800 C 208.731 218.800,208.523 218.215,208.159 217.500 C 207.417 216.040,207.200 215.736,207.200 216.153 M219.000 217.546 C 220.674 219.346,223.102 220.944,224.800 221.365 C 225.350 221.501,224.861 221.173,223.713 220.635 C 222.566 220.097,220.676 218.795,219.513 217.742 L 217.400 215.827 219.000 217.546 M283.217 216.300 C 283.239 216.701,284.762 219.470,284.783 219.149 C 284.811 218.735,283.605 216.000,283.395 216.000 C 283.288 216.000,283.208 216.135,283.217 216.300 M125.700 216.698 C 127.845 216.770,131.355 216.770,133.500 216.698 C 135.645 216.626,133.890 216.567,129.600 216.567 C 125.310 216.567,123.555 216.626,125.700 216.698 M118.000 217.200 C 116.650 217.484,116.643 217.495,117.800 217.500 C 118.460 217.503,119.540 217.368,120.200 217.200 C 121.860 216.778,120.007 216.778,118.000 217.200 M139.000 217.200 C 139.660 217.368,140.740 217.506,141.400 217.507 C 142.409 217.508,142.345 217.455,141.000 217.177 C 138.974 216.758,137.337 216.777,139.000 217.200 M114.400 218.000 C 113.596 218.257,113.557 218.323,114.200 218.332 C 114.640 218.338,115.360 218.189,115.800 218.000 C 116.819 217.562,115.768 217.562,114.400 218.000 M143.200 217.994 C 143.530 218.211,144.235 218.391,144.767 218.394 C 146.051 218.402,145.725 218.175,144.000 217.858 C 143.015 217.677,142.778 217.718,143.200 217.994 M111.600 218.800 C 110.776 219.064,110.741 219.126,111.400 219.154 C 111.840 219.173,112.470 219.013,112.800 218.800 C 113.501 218.347,113.014 218.347,111.600 218.800 M146.000 218.546 C 146.000 218.733,149.789 220.008,150.275 219.984 C 150.746 219.962,148.392 218.978,147.100 218.657 C 146.495 218.507,146.000 218.457,146.000 218.546 M227.874 219.690 C 228.794 219.881,230.128 219.886,230.838 219.702 C 231.868 219.435,231.530 219.365,229.164 219.356 C 226.488 219.345,226.362 219.377,227.874 219.690 M284.818 219.651 C 284.780 220.180,286.057 222.876,286.252 222.681 C 286.365 222.568,286.093 221.784,285.647 220.938 C 285.200 220.092,284.827 219.513,284.818 219.651 M234.600 220.800 C 233.720 221.207,233.141 221.554,233.313 221.570 C 233.787 221.615,236.400 220.472,236.400 220.220 C 236.400 219.949,236.523 219.910,234.600 220.800 M104.665 221.447 C 104.040 221.786,103.606 222.139,103.700 222.233 C 103.887 222.420,106.400 221.246,106.400 220.971 C 106.400 220.662,105.818 220.822,104.665 221.447 M212.200 223.600 C 213.283 224.700,214.260 225.600,214.370 225.600 C 214.480 225.600,213.683 224.700,212.600 223.600 C 211.517 222.500,210.540 221.600,210.430 221.600 C 210.320 221.600,211.117 222.500,212.200 223.600 M227.712 221.895 C 228.764 221.977,230.384 221.976,231.312 221.892 C 232.240 221.808,231.380 221.741,229.400 221.742 C 227.420 221.743,226.660 221.812,227.712 221.895 M186.120 223.464 C 186.275 223.719,187.339 224.709,188.483 225.664 C 189.627 226.619,190.436 227.191,190.280 226.936 C 190.125 226.681,189.061 225.691,187.917 224.736 C 186.773 223.781,185.964 223.209,186.120 223.464 M242.367 223.805 C 242.045 224.127,240.615 225.018,239.191 225.786 C 237.766 226.554,236.727 227.186,236.881 227.191 C 237.426 227.209,239.421 226.221,241.200 225.053 C 243.438 223.583,243.372 223.639,243.143 223.410 C 243.038 223.305,242.689 223.483,242.367 223.805 M244.000 225.459 C 243.010 226.258,240.940 227.523,239.400 228.271 C 237.860 229.019,237.050 229.511,237.600 229.364 C 239.143 228.952,241.607 227.640,243.700 226.116 C 244.745 225.355,245.600 224.938,245.600 225.190 C 245.600 225.441,245.780 225.536,246.000 225.400 C 246.464 225.113,246.544 223.998,246.100 224.004 C 245.935 224.006,244.990 224.661,244.000 225.459 M96.537 226.663 C 93.311 229.236,91.345 231.119,89.921 233.000 C 89.129 234.046,89.364 233.869,90.601 232.487 C 91.642 231.325,93.868 229.270,95.547 227.920 C 99.310 224.893,99.417 224.800,99.117 224.800 C 98.983 224.800,97.822 225.639,96.537 226.663 M217.769 225.150 C 218.047 225.600,221.577 227.357,221.784 227.149 C 221.883 227.050,220.978 226.492,219.774 225.909 C 218.569 225.326,217.667 224.985,217.769 225.150 M190.920 227.464 C 191.075 227.719,192.139 228.709,193.283 229.664 C 194.427 230.619,195.236 231.191,195.080 230.936 C 194.925 230.681,193.861 229.691,192.717 228.736 C 191.573 227.781,190.764 227.209,190.920 227.464 M217.200 227.456 C 217.200 227.726,221.620 229.713,221.806 229.527 C 221.892 229.442,220.890 228.898,219.581 228.320 C 218.271 227.741,217.200 227.352,217.200 227.456 M222.800 227.594 C 223.130 227.811,223.835 227.991,224.367 227.994 C 225.651 228.002,225.325 227.775,223.600 227.458 C 222.615 227.277,222.378 227.318,222.800 227.594 M234.600 227.600 C 233.493 227.882,233.477 227.909,234.400 227.947 C 234.950 227.969,235.670 227.813,236.000 227.600 C 236.681 227.160,236.329 227.160,234.600 227.600 M227.400 228.409 C 228.500 228.554,230.300 228.553,231.400 228.405 C 232.935 228.199,232.470 228.137,229.400 228.140 C 226.334 228.143,225.867 228.205,227.400 228.409 M288.817 229.100 C 288.839 229.501,290.362 232.270,290.383 231.949 C 290.411 231.535,289.205 228.800,288.995 228.800 C 288.888 228.800,288.808 228.935,288.817 229.100 M222.433 229.744 C 222.525 229.823,223.140 230.008,223.800 230.156 C 224.676 230.352,224.838 230.315,224.400 230.018 C 223.860 229.653,222.032 229.398,222.433 229.744 M234.400 230.000 C 233.605 230.514,234.604 230.514,235.800 230.000 L 236.600 229.656 235.800 229.634 C 235.360 229.622,234.730 229.787,234.400 230.000 M227.513 230.695 C 228.676 230.776,230.476 230.776,231.513 230.693 C 232.551 230.611,231.600 230.545,229.400 230.546 C 227.200 230.547,226.351 230.614,227.513 230.695 M290.418 232.451 C 290.380 232.980,291.657 235.676,291.852 235.481 C 291.965 235.368,291.693 234.584,291.247 233.738 C 290.800 232.892,290.427 232.313,290.418 232.451 M87.287 236.500 C 85.827 238.656,85.512 239.200,85.720 239.200 C 85.812 239.200,86.544 238.210,87.347 237.000 C 88.151 235.790,88.725 234.800,88.623 234.800 C 88.522 234.800,87.920 235.565,87.287 236.500 M167.290 238.214 C 165.469 239.856,164.119 241.198,164.290 241.195 C 164.629 241.189,171.125 235.240,170.800 235.232 C 170.690 235.229,169.110 236.571,167.290 238.214 M240.655 236.655 C 240.276 237.449,240.053 238.186,240.159 238.293 C 240.266 238.399,240.636 237.809,240.982 236.982 C 241.798 235.029,241.549 234.780,240.655 236.655 M84.200 241.600 C 83.620 242.744,83.228 243.761,83.327 243.860 C 83.427 243.960,83.977 243.100,84.550 241.950 C 85.123 240.800,85.516 239.783,85.423 239.690 C 85.330 239.597,84.780 240.456,84.200 241.600 M162.200 242.667 C 161.540 243.240,159.830 244.741,158.400 246.002 C 156.970 247.263,154.956 248.994,153.926 249.848 C 152.895 250.701,152.040 251.544,152.026 251.719 C 152.000 252.041,163.042 242.579,163.436 241.942 C 163.782 241.382,163.468 241.566,162.200 242.667 M294.417 241.900 C 294.439 242.301,295.962 245.070,295.983 244.749 C 296.011 244.335,294.805 241.600,294.595 241.600 C 294.488 241.600,294.408 241.735,294.417 241.900 M129.111 244.693 C 130.051 244.778,131.491 244.777,132.311 244.691 C 133.130 244.605,132.360 244.536,130.600 244.537 C 128.840 244.539,128.170 244.609,129.111 244.693 M236.655 245.855 C 236.276 246.649,236.053 247.386,236.159 247.493 C 236.266 247.599,236.636 247.009,236.982 246.182 C 237.798 244.229,237.549 243.980,236.655 245.855 M122.456 245.903 C 120.209 247.028,117.054 249.578,116.402 250.797 C 116.191 251.191,116.970 250.587,118.132 249.456 C 120.356 247.293,123.254 245.629,125.600 245.167 C 126.961 244.900,126.967 244.891,125.800 244.861 C 125.140 244.844,123.635 245.313,122.456 245.903 M136.600 245.551 C 139.585 246.628,141.196 247.521,143.272 249.245 C 144.301 250.100,145.266 250.800,145.415 250.800 C 145.565 250.800,144.813 250.060,143.744 249.155 C 141.714 247.438,136.578 244.790,135.326 244.814 C 134.927 244.822,135.500 245.154,136.600 245.551 M296.018 245.251 C 295.980 245.780,297.257 248.476,297.452 248.281 C 297.565 248.168,297.293 247.384,296.847 246.538 C 296.400 245.692,296.027 245.113,296.018 245.251 M81.050 250.450 C 80.717 252.117,81.040 252.440,81.400 250.800 C 81.552 250.109,81.593 249.459,81.491 249.358 C 81.389 249.256,81.191 249.747,81.050 250.450 M114.986 253.227 C 114.637 253.902,114.407 254.614,114.476 254.809 C 114.544 255.004,114.902 254.451,115.270 253.582 C 116.065 251.706,115.887 251.484,114.986 253.227 M150.400 253.000 C 149.295 254.176,149.070 254.213,148.210 253.352 C 147.853 252.996,147.465 252.802,147.346 252.920 C 147.228 253.039,147.609 253.449,148.193 253.832 C 149.241 254.519,149.273 254.511,150.520 253.264 C 151.216 252.569,151.684 252.000,151.562 252.000 C 151.440 252.000,150.917 252.450,150.400 253.000 M80.215 254.615 C 80.061 255.854,80.017 256.950,80.119 257.052 C 80.220 257.154,80.430 256.223,80.585 254.985 C 80.739 253.746,80.783 252.650,80.681 252.548 C 80.580 252.446,80.370 253.377,80.215 254.615 M232.623 255.006 C 231.760 257.072,231.874 257.306,232.847 255.462 C 233.293 254.616,233.565 253.832,233.452 253.719 C 233.339 253.606,232.966 254.185,232.623 255.006 M300.000 254.551 C 300.000 255.018,301.277 257.657,301.429 257.505 C 301.638 257.295,300.488 254.400,300.195 254.400 C 300.088 254.400,300.000 254.468,300.000 254.551 M265.875 255.058 C 265.427 255.506,265.562 256.071,266.045 255.772 C 266.289 255.621,266.659 255.746,266.866 256.049 C 267.155 256.472,267.215 256.422,267.122 255.833 C 266.992 255.016,266.329 254.604,265.875 255.058 M113.849 256.215 C 113.712 256.573,113.621 257.346,113.646 257.933 C 113.680 258.732,113.770 258.598,114.004 257.400 C 114.335 255.700,114.262 255.140,113.849 256.215 M138.100 257.065 C 137.825 257.176,137.600 257.438,137.600 257.647 C 137.600 257.877,137.907 257.864,138.374 257.614 C 139.206 257.169,165.437 257.009,166.567 257.443 C 167.132 257.660,167.200 259.743,167.200 276.839 L 167.200 295.992 165.000 297.453 C 163.790 298.256,162.800 298.998,162.800 299.103 C 162.800 299.326,164.473 298.286,166.300 296.927 L 167.600 295.959 167.600 276.860 C 167.600 262.538,167.480 257.640,167.120 257.280 C 166.639 256.799,139.262 256.596,138.100 257.065 M231.055 258.655 C 230.676 259.449,230.453 260.186,230.559 260.293 C 230.666 260.399,231.036 259.809,231.382 258.982 C 232.198 257.029,231.949 256.780,231.055 258.655 M264.200 259.200 C 264.050 259.673,264.017 260.150,264.127 260.260 C 264.237 260.370,264.450 260.073,264.600 259.600 C 264.750 259.127,264.783 258.650,264.673 258.540 C 264.563 258.430,264.350 258.727,264.200 259.200 M79.737 261.800 C 79.739 263.560,79.809 264.230,79.893 263.289 C 79.978 262.349,79.977 260.909,79.891 260.089 C 79.805 259.270,79.736 260.040,79.737 261.800 M113.331 261.800 C 113.333 263.340,113.405 263.921,113.492 263.091 C 113.579 262.261,113.577 261.001,113.489 260.291 C 113.400 259.581,113.329 260.260,113.331 261.800 M262.032 265.257 C 261.987 266.183,262.817 266.400,266.400 266.400 C 269.983 266.400,270.813 266.183,270.768 265.257 C 270.748 264.842,270.662 264.784,270.535 265.100 C 270.393 265.452,269.172 265.600,266.400 265.600 C 263.628 265.600,262.407 265.452,262.265 265.100 C 262.138 264.784,262.052 264.842,262.032 265.257 M113.664 266.200 C 113.590 270.051,119.376 278.319,122.195 278.390 C 122.412 278.396,121.633 277.756,120.465 276.969 C 117.264 274.814,114.891 271.003,114.008 266.600 C 113.732 265.219,113.684 265.164,113.664 266.200 M227.023 267.806 C 226.160 269.872,226.274 270.106,227.247 268.262 C 227.693 267.416,227.965 266.632,227.852 266.519 C 227.739 266.406,227.366 266.985,227.023 267.806 M80.076 267.600 C 80.067 268.150,80.203 269.410,80.380 270.400 C 80.620 271.750,80.707 271.900,80.727 271.000 C 80.742 270.340,80.605 269.080,80.423 268.200 C 80.216 267.198,80.086 266.974,80.076 267.600 M305.618 267.251 C 305.580 267.780,306.857 270.476,307.052 270.281 C 307.165 270.168,306.893 269.384,306.447 268.538 C 306.000 267.692,305.627 267.113,305.618 267.251 M225.455 271.455 C 225.076 272.249,224.853 272.986,224.959 273.093 C 225.066 273.199,225.436 272.609,225.782 271.782 C 226.598 269.829,226.349 269.580,225.455 271.455 M80.868 272.800 C 80.888 273.839,81.518 275.546,81.532 274.600 C 81.538 274.160,81.389 273.440,81.200 273.000 C 80.989 272.510,80.861 272.432,80.868 272.800 M136.027 279.064 C 134.989 279.516,133.458 279.630,129.763 279.531 C 127.073 279.459,125.081 279.532,125.336 279.694 C 126.760 280.596,137.600 279.750,137.600 278.737 C 137.600 278.552,137.555 278.415,137.500 278.433 C 137.445 278.451,136.782 278.735,136.027 279.064 M221.423 280.606 C 220.560 282.672,220.674 282.906,221.647 281.062 C 222.093 280.216,222.365 279.432,222.252 279.319 C 222.139 279.206,221.766 279.785,221.423 280.606 M83.211 280.110 C 83.194 280.608,86.035 286.099,86.216 285.917 C 86.306 285.827,85.670 284.414,84.801 282.776 C 83.932 281.139,83.216 279.939,83.211 280.110 M311.218 280.051 C 311.180 280.580,312.457 283.276,312.652 283.081 C 312.765 282.968,312.493 282.184,312.047 281.338 C 311.600 280.492,311.227 279.913,311.218 280.051 M219.855 284.255 C 219.476 285.049,219.253 285.786,219.359 285.893 C 219.466 285.999,219.836 285.409,220.182 284.582 C 220.998 282.629,220.749 282.380,219.855 284.255 M89.097 290.200 C 89.777 291.080,91.108 292.520,92.056 293.400 C 93.289 294.544,93.108 294.260,91.420 292.400 C 88.167 288.817,87.658 288.335,89.097 290.200 M215.823 293.406 C 214.960 295.472,215.074 295.706,216.047 293.862 C 216.493 293.016,216.765 292.232,216.652 292.119 C 216.539 292.006,216.166 292.585,215.823 293.406 M251.700 292.665 C 251.425 292.776,251.200 293.068,251.200 293.313 C 251.200 293.624,251.346 293.614,251.680 293.280 C 252.035 292.925,255.858 292.800,266.400 292.800 C 276.942 292.800,280.765 292.925,281.120 293.280 C 281.441 293.601,281.600 293.615,281.600 293.323 C 281.600 292.468,253.708 291.855,251.700 292.665 M316.818 292.851 C 316.780 293.380,318.057 296.076,318.252 295.881 C 318.365 295.768,318.093 294.984,317.647 294.138 C 317.200 293.292,316.827 292.713,316.818 292.851 M94.960 296.283 C 96.068 297.512,100.800 301.057,100.800 300.660 C 100.800 300.554,99.855 299.792,98.700 298.966 C 97.545 298.140,95.970 296.909,95.201 296.232 L 93.802 295.000 94.960 296.283 M214.255 297.055 C 213.876 297.849,213.653 298.586,213.759 298.693 C 213.866 298.799,214.236 298.209,214.582 297.382 C 215.398 295.429,215.149 295.180,214.255 297.055 M282.412 296.400 C 282.412 296.730,282.587 297.270,282.800 297.600 C 283.145 298.133,283.188 298.133,283.188 297.600 C 283.188 297.270,283.013 296.730,282.800 296.400 C 282.455 295.867,282.412 295.867,282.412 296.400 M160.200 300.199 C 159.320 300.718,157.112 301.723,155.293 302.431 C 153.474 303.140,152.058 303.791,152.145 303.878 C 152.396 304.129,159.233 301.296,161.000 300.209 C 163.044 298.952,162.330 298.943,160.200 300.199 M248.200 300.800 C 248.050 301.273,248.017 301.750,248.127 301.860 C 248.237 301.970,248.450 301.673,248.600 301.200 C 248.750 300.727,248.783 300.250,248.673 300.140 C 248.563 300.030,248.350 300.327,248.200 300.800 M101.600 301.185 C 102.406 301.784,104.994 303.141,106.214 303.605 C 108.073 304.312,107.199 303.675,104.500 302.356 C 101.301 300.792,100.798 300.589,101.600 301.185 M111.600 305.600 C 112.810 306.011,114.070 306.346,114.400 306.345 C 114.730 306.345,114.010 306.002,112.800 305.583 C 111.590 305.165,110.330 304.829,110.000 304.838 C 109.670 304.846,110.390 305.189,111.600 305.600 M147.400 305.200 C 146.896 305.417,146.822 305.544,147.200 305.544 C 147.530 305.544,148.160 305.389,148.600 305.200 C 149.104 304.983,149.178 304.856,148.800 304.856 C 148.470 304.856,147.840 305.011,147.400 305.200 M144.000 306.006 C 143.578 306.282,143.815 306.323,144.800 306.142 C 146.525 305.825,146.851 305.598,145.567 305.606 C 145.035 305.609,144.330 305.789,144.000 306.006 M322.499 306.400 L 322.600 307.400 305.133 307.504 C 289.647 307.597,287.594 307.537,287.033 306.976 C 286.685 306.628,286.400 306.500,286.400 306.691 C 286.400 307.927,287.450 308.000,305.280 308.000 C 324.648 308.000,324.147 308.057,322.793 306.000 C 322.485 305.532,322.420 305.620,322.499 306.400 M116.200 306.800 C 117.892 307.231,119.344 307.231,118.000 306.800 C 117.450 306.624,116.550 306.483,116.000 306.487 C 115.102 306.494,115.122 306.526,116.200 306.800 M140.200 306.819 C 139.642 307.071,139.885 307.107,141.000 306.938 C 141.880 306.804,142.675 306.628,142.767 306.547 C 143.110 306.244,140.968 306.471,140.200 306.819 M245.608 306.990 C 244.923 307.815,211.299 307.920,210.430 307.100 C 210.002 306.696,209.935 306.716,210.083 307.200 C 210.365 308.121,245.245 308.310,246.005 307.394 C 246.285 307.057,246.424 306.691,246.314 306.581 C 246.204 306.471,245.886 306.655,245.608 306.990 M121.000 307.665 C 123.557 308.004,133.925 308.001,136.800 307.660 C 138.010 307.517,134.500 307.400,129.000 307.400 C 123.500 307.400,119.900 307.519,121.000 307.665 M304.501 333.800 C 304.505 334.680,304.587 334.993,304.683 334.495 C 304.779 333.998,304.775 333.278,304.675 332.895 C 304.575 332.513,304.496 332.920,304.501 333.800 M376.777 354.200 L 376.600 356.200 340.800 356.200 L 305.000 356.200 304.760 354.400 L 304.520 352.600 304.460 354.220 C 304.358 356.975,301.874 356.800,341.072 356.800 L 376.785 356.800 377.022 355.855 C 377.152 355.336,377.190 354.301,377.107 353.555 C 376.976 352.394,376.929 352.487,376.777 354.200 M95.254 354.086 C 95.166 356.493,96.610 356.400,59.200 356.400 C 36.216 356.400,24.490 356.262,23.974 355.986 C 23.529 355.748,23.200 355.730,23.200 355.943 C 23.200 356.743,25.571 356.800,58.933 356.795 C 98.666 356.788,96.147 357.012,95.488 353.541 C 95.366 352.903,95.291 353.078,95.254 354.086 " stroke="none" fill="#616161" fill-rule="evenodd"></path><path id="path4" d="M23.467 43.867 C 23.096 44.237,23.129 355.509,23.500 355.738 C 23.665 355.840,23.755 285.742,23.699 199.964 L 23.598 44.004 58.899 43.900 L 94.200 43.796 58.967 43.698 C 39.588 43.644,23.613 43.720,23.467 43.867 M323.300 43.900 C 332.925 43.960,348.675 43.960,358.300 43.900 C 367.925 43.840,360.050 43.791,340.800 43.791 C 321.550 43.791,313.675 43.840,323.300 43.900 M94.492 55.990 C 94.501 62.631,94.662 67.885,94.854 67.767 C 95.317 67.480,95.302 44.510,94.838 44.224 C 94.626 44.092,94.483 48.941,94.492 55.990 M305.067 44.267 C 304.616 44.717,304.756 67.170,305.214 68.026 C 305.616 68.777,306.296 68.800,328.414 68.800 L 351.200 68.800 351.200 200.197 L 351.200 331.593 328.600 331.702 L 306.000 331.810 328.700 331.805 L 351.400 331.800 351.400 200.200 L 351.400 68.600 328.500 68.497 C 307.049 68.400,305.598 68.349,305.575 67.697 C 305.561 67.314,305.544 61.825,305.536 55.500 C 305.529 49.175,305.480 44.000,305.428 44.000 C 305.376 44.000,305.213 44.120,305.067 44.267 M376.301 200.020 L 376.402 356.000 340.901 356.000 L 305.400 356.000 305.452 344.000 C 305.481 337.178,305.349 332.000,305.146 332.000 C 304.941 332.000,304.834 337.178,304.894 344.100 L 305.000 356.200 340.800 356.200 L 376.600 356.200 376.701 200.421 C 376.756 114.742,376.666 44.506,376.501 44.341 C 376.335 44.175,376.245 114.231,376.301 200.020 M26.586 47.298 C 26.481 47.574,26.441 116.470,26.498 200.400 L 26.600 353.000 59.200 353.000 L 91.800 353.000 91.800 343.800 L 91.800 334.600 68.800 334.400 L 45.800 334.200 45.599 200.000 L 45.398 65.800 45.299 199.851 C 45.216 311.613,45.289 333.976,45.737 334.348 C 46.114 334.661,52.983 334.824,68.837 334.897 L 91.400 335.000 91.400 343.800 L 91.400 352.600 59.100 352.702 L 26.800 352.805 26.800 200.000 L 26.800 47.195 59.100 47.298 L 91.400 47.400 91.400 56.000 L 91.400 64.600 68.500 64.703 C 55.905 64.760,45.600 64.940,45.600 65.103 C 45.600 65.266,55.995 65.310,68.700 65.200 L 91.800 65.000 91.800 56.000 L 91.800 47.000 59.288 46.898 C 33.490 46.816,26.737 46.899,26.586 47.298 M308.180 47.307 C 308.072 47.589,308.033 51.775,308.092 56.609 L 308.200 65.400 331.200 65.600 L 354.200 65.800 354.401 200.000 L 354.602 334.200 354.701 200.149 C 354.784 88.387,354.711 66.024,354.263 65.652 C 353.886 65.339,347.017 65.176,331.163 65.103 L 308.600 65.000 308.600 56.200 L 308.600 47.400 340.900 47.298 L 373.200 47.195 373.200 200.000 L 373.200 352.805 340.900 352.702 L 308.600 352.600 308.600 344.000 L 308.600 335.400 331.500 335.297 C 344.095 335.240,354.400 335.060,354.400 334.897 C 354.400 334.734,344.005 334.690,331.300 334.800 L 308.200 335.000 308.200 344.000 L 308.200 353.000 340.800 353.000 L 373.400 353.000 373.400 200.000 L 373.400 47.000 340.888 46.898 C 314.774 46.815,308.338 46.896,308.180 47.307 M48.585 68.500 C 48.481 68.775,48.441 128.040,48.498 200.200 L 48.600 331.400 71.600 331.503 L 94.600 331.606 94.548 343.836 C 94.517 351.046,94.642 355.918,94.854 355.706 C 95.054 355.506,95.165 350.061,95.106 343.374 L 95.000 331.400 71.900 331.297 L 48.800 331.194 48.800 199.800 L 48.800 68.407 71.500 68.300 L 94.200 68.193 71.487 68.097 C 53.614 68.021,48.734 68.107,48.585 68.500 M260.400 101.220 C 259.726 101.449,260.051 101.484,261.400 101.328 C 262.500 101.201,263.475 101.031,263.567 100.949 C 263.882 100.668,261.399 100.880,260.400 101.220 M279.400 101.200 C 280.060 101.368,281.140 101.505,281.800 101.505 L 283.000 101.505 281.800 101.200 C 281.140 101.032,280.060 100.895,279.400 100.895 L 278.200 100.895 279.400 101.200 M256.200 102.000 L 255.400 102.344 256.200 102.344 C 256.640 102.344,257.360 102.189,257.800 102.000 L 258.600 101.656 257.800 101.656 C 257.360 101.656,256.640 101.811,256.200 102.000 M284.200 102.000 C 284.640 102.189,285.270 102.344,285.600 102.344 C 285.978 102.344,285.904 102.217,285.400 102.000 C 284.960 101.811,284.330 101.656,284.000 101.656 C 283.622 101.656,283.696 101.783,284.200 102.000 M250.053 103.853 C 249.313 104.176,248.792 104.525,248.895 104.628 C 248.999 104.732,249.875 104.466,250.842 104.037 C 251.809 103.608,252.330 103.258,252.000 103.261 C 251.670 103.263,250.794 103.530,250.053 103.853 M294.655 105.565 C 296.445 106.414,299.055 107.860,300.455 108.778 C 302.531 110.141,302.742 110.220,301.600 109.211 C 300.126 107.907,292.848 103.992,291.934 104.011 C 291.640 104.017,292.865 104.716,294.655 105.565 M244.311 106.560 C 241.987 107.941,241.982 108.206,244.300 107.041 C 245.455 106.461,246.400 105.900,246.400 105.793 C 246.400 105.449,245.829 105.658,244.311 106.560 M238.908 110.110 C 237.317 111.260,236.012 112.328,236.008 112.484 C 236.001 112.730,240.718 109.358,241.780 108.358 C 242.690 107.501,241.593 108.170,238.908 110.110 M307.100 114.251 C 311.619 118.702,311.678 118.826,310.100 120.578 L 309.000 121.800 310.300 120.625 C 311.015 119.979,311.600 119.245,311.600 118.993 C 311.600 118.345,307.591 113.997,305.101 111.944 C 303.945 110.992,304.845 112.030,307.100 114.251 M233.600 114.600 C 232.628 115.590,231.923 116.400,232.033 116.400 C 232.143 116.400,233.028 115.590,234.000 114.600 C 234.972 113.610,235.677 112.800,235.567 112.800 C 235.457 112.800,234.572 113.610,233.600 114.600 M231.144 117.500 C 229.875 119.032,229.419 119.742,229.881 119.465 C 230.393 119.158,232.169 116.800,231.889 116.800 C 231.798 116.800,231.463 117.115,231.144 117.500 M307.371 122.903 L 306.200 124.197 307.400 123.199 C 308.060 122.649,308.675 122.155,308.767 122.100 C 308.858 122.045,308.845 121.912,308.738 121.804 C 308.630 121.696,308.015 122.191,307.371 122.903 M227.014 123.435 C 226.641 124.004,226.427 124.561,226.539 124.672 C 226.650 124.783,227.029 124.318,227.381 123.637 C 228.159 122.133,227.944 122.015,227.014 123.435 M302.400 127.040 C 300.530 128.679,298.550 130.495,298.000 131.076 C 297.450 131.656,298.929 130.474,301.287 128.449 C 304.985 125.272,306.412 123.912,305.924 124.030 C 305.856 124.046,304.270 125.401,302.400 127.040 M266.400 128.400 L 265.400 128.720 266.400 128.720 C 266.950 128.720,267.850 128.576,268.400 128.400 L 269.400 128.080 268.400 128.080 C 267.850 128.080,266.950 128.224,266.400 128.400 M274.433 128.143 C 274.525 128.222,275.320 128.397,276.200 128.532 C 277.290 128.699,277.609 128.655,277.200 128.395 C 276.653 128.046,274.045 127.809,274.433 128.143 M261.014 130.880 C 260.157 131.377,258.941 132.560,258.005 133.807 C 257.678 134.243,258.398 133.712,259.605 132.627 C 260.812 131.542,261.875 130.597,261.967 130.527 C 262.353 130.232,261.740 130.459,261.014 130.880 M293.798 134.616 C 290.445 137.675,290.453 137.674,288.350 135.392 C 287.433 134.397,286.606 133.660,286.512 133.754 C 286.233 134.034,289.818 137.600,290.378 137.600 C 290.661 137.600,292.177 136.482,293.746 135.116 C 295.316 133.749,296.675 132.579,296.767 132.516 C 296.858 132.452,296.858 132.324,296.765 132.232 C 296.672 132.139,295.337 133.212,293.798 134.616 M222.600 134.800 C 222.450 135.273,222.417 135.750,222.527 135.860 C 222.637 135.970,222.850 135.673,223.000 135.200 C 223.150 134.727,223.183 134.250,223.073 134.140 C 222.963 134.030,222.750 134.327,222.600 134.800 M221.800 139.200 C 221.645 140.328,221.602 141.336,221.706 141.439 C 221.809 141.542,222.016 140.700,222.167 139.567 C 222.317 138.434,222.359 137.426,222.261 137.328 C 222.163 137.229,221.955 138.072,221.800 139.200 M254.600 141.600 C 254.446 142.510,254.404 143.338,254.507 143.440 C 254.610 143.543,254.813 142.877,254.960 141.960 C 255.107 141.043,255.148 140.215,255.053 140.120 C 254.958 140.024,254.754 140.690,254.600 141.600 M279.293 151.900 L 279.386 162.600 279.500 152.095 L 279.613 141.590 293.907 141.695 L 308.200 141.800 308.311 160.000 C 308.438 180.825,308.557 179.640,306.196 181.023 C 305.208 181.602,304.400 182.155,304.400 182.252 C 304.400 182.526,306.063 181.602,307.500 180.529 L 308.800 179.559 308.800 161.012 C 308.800 150.812,308.691 142.181,308.557 141.833 C 308.342 141.272,306.662 141.200,293.757 141.200 L 279.200 141.200 279.293 151.900 M254.428 148.633 C 254.444 149.495,254.617 150.560,254.814 151.000 C 255.048 151.522,255.088 151.037,254.932 149.600 C 254.643 146.958,254.389 146.470,254.428 148.633 M221.640 151.033 C 221.662 151.895,221.833 153.050,222.021 153.600 C 222.242 154.248,222.280 153.755,222.131 152.200 C 221.863 149.420,221.582 148.751,221.640 151.033 M256.018 154.622 C 255.988 155.332,258.216 158.531,259.624 159.800 C 260.699 160.769,260.625 160.615,259.238 159.000 C 258.293 157.900,257.185 156.370,256.777 155.600 C 256.369 154.830,256.027 154.390,256.018 154.622 M222.434 156.200 C 222.422 156.640,222.587 157.270,222.800 157.600 C 223.314 158.395,223.314 157.396,222.800 156.200 L 222.456 155.400 222.434 156.200 M224.012 161.600 C 224.012 161.930,224.187 162.470,224.400 162.800 C 224.745 163.333,224.788 163.333,224.788 162.800 C 224.788 162.470,224.613 161.930,224.400 161.600 C 224.055 161.067,224.012 161.067,224.012 161.600 M262.400 161.796 C 262.400 162.070,264.849 163.284,265.032 163.101 C 265.119 163.014,264.562 162.644,263.795 162.278 C 263.028 161.912,262.400 161.695,262.400 161.796 M266.000 163.600 C 266.330 163.813,266.960 163.978,267.400 163.966 L 268.200 163.944 267.400 163.600 C 266.204 163.086,265.205 163.086,266.000 163.600 M276.000 163.600 C 275.196 163.857,275.157 163.923,275.800 163.932 C 276.240 163.938,276.960 163.789,277.400 163.600 C 278.419 163.162,277.368 163.162,276.000 163.600 M227.200 168.622 C 227.200 169.530,232.845 176.588,235.598 179.123 C 239.197 182.437,238.915 181.773,235.098 177.948 C 232.602 175.447,229.868 172.275,229.023 170.900 C 227.585 168.561,227.200 168.080,227.200 168.622 M302.700 183.029 C 301.205 183.840,301.296 184.178,302.800 183.400 C 303.460 183.059,304.000 182.694,304.000 182.590 C 304.000 182.332,303.957 182.347,302.700 183.029 M224.880 183.540 C 224.374 183.683,226.410 183.800,229.405 183.800 C 232.399 183.800,234.433 183.683,233.925 183.540 C 233.416 183.397,231.380 183.280,229.400 183.280 C 227.420 183.280,225.386 183.397,224.880 183.540 M153.917 201.738 C 154.045 221.034,154.024 221.368,152.687 221.004 C 151.895 220.788,151.877 220.810,152.524 221.214 C 154.404 222.389,154.400 222.426,154.394 203.113 C 154.391 193.151,154.256 184.792,154.094 184.538 C 153.932 184.283,153.853 192.023,153.917 201.738 M158.600 186.175 C 163.137 190.220,171.000 196.718,171.167 196.559 C 171.258 196.472,171.258 196.344,171.167 196.277 C 169.078 194.729,157.200 184.574,157.200 184.335 C 157.200 184.151,156.975 184.008,156.700 184.017 C 156.425 184.027,157.280 184.998,158.600 186.175 M185.200 195.576 C 185.200 202.066,185.041 207.251,184.837 207.377 C 184.547 207.557,176.694 201.252,172.500 197.472 C 172.005 197.026,171.600 196.767,171.600 196.897 C 171.600 197.368,184.424 208.000,184.993 208.000 C 185.490 208.000,185.594 206.207,185.689 196.000 C 185.750 189.400,185.665 184.000,185.500 184.000 C 185.335 184.000,185.200 189.209,185.200 195.576 M196.000 207.120 L 196.200 230.200 196.303 207.423 C 196.360 194.896,196.270 184.510,196.103 184.343 C 195.937 184.176,195.890 194.426,196.000 207.120 M221.600 184.400 C 220.805 184.914,221.804 184.914,223.000 184.400 L 223.800 184.056 223.000 184.034 C 222.560 184.022,221.930 184.187,221.600 184.400 M243.200 184.767 C 244.163 185.552,244.800 185.808,244.800 185.410 C 244.800 185.306,244.215 184.935,243.500 184.586 L 242.200 183.952 243.200 184.767 M217.849 186.096 C 215.050 187.615,210.996 191.427,209.253 194.178 C 207.201 197.418,207.832 197.118,210.053 193.798 C 212.225 190.550,215.003 188.076,218.783 186.025 C 220.002 185.363,220.820 184.821,220.600 184.821 C 220.380 184.821,219.142 185.395,217.849 186.096 M225.276 185.140 C 224.768 185.283,226.624 185.400,229.400 185.400 C 232.176 185.400,234.032 185.283,233.524 185.140 C 233.016 184.997,231.160 184.880,229.400 184.880 C 227.640 184.880,225.784 184.997,225.276 185.140 M187.067 185.867 C 186.920 186.013,186.800 191.773,186.800 198.667 C 186.800 205.560,186.651 211.200,186.470 211.200 C 186.288 211.200,184.803 210.059,183.170 208.665 C 176.086 202.620,172.989 200.093,172.839 200.236 C 172.750 200.320,173.110 200.730,173.639 201.147 C 174.168 201.564,177.293 204.164,180.584 206.924 C 183.876 209.685,186.711 211.855,186.884 211.748 C 187.058 211.641,187.200 205.810,187.200 198.791 L 187.200 186.030 190.900 185.898 L 194.600 185.766 190.967 185.683 C 188.968 185.637,187.213 185.720,187.067 185.867 M222.000 186.000 C 221.467 186.345,221.467 186.388,222.000 186.388 C 222.330 186.388,222.870 186.213,223.200 186.000 C 223.733 185.655,223.733 185.612,223.200 185.612 C 222.870 185.612,222.330 185.787,222.000 186.000 M235.600 186.000 C 235.930 186.213,236.470 186.388,236.800 186.388 C 237.333 186.388,237.333 186.345,236.800 186.000 C 236.470 185.787,235.930 185.612,235.600 185.612 C 235.067 185.612,235.067 185.655,235.600 186.000 M155.696 204.500 L 155.792 222.600 155.900 204.700 C 155.959 194.855,156.123 186.800,156.263 186.800 C 156.403 186.800,157.346 187.445,158.359 188.234 L 160.200 189.668 158.449 188.034 C 155.427 185.215,155.589 184.246,155.696 204.500 M218.400 187.668 C 216.042 189.019,211.652 193.157,210.833 194.800 C 210.500 195.470,210.698 195.338,211.435 194.400 C 213.482 191.795,216.671 188.986,219.041 187.701 C 220.338 186.997,221.220 186.418,221.000 186.414 C 220.780 186.411,219.610 186.975,218.400 187.668 M237.633 186.549 C 238.045 186.917,240.400 188.000,240.400 187.821 C 240.400 187.590,238.182 186.400,237.753 186.400 C 237.596 186.400,237.542 186.467,237.633 186.549 M241.200 186.537 C 241.200 186.623,241.893 187.153,242.741 187.713 C 244.836 189.100,247.851 192.237,249.071 194.300 C 250.367 196.492,250.740 196.520,249.526 194.334 C 248.015 191.616,241.200 185.233,241.200 186.537 M242.000 189.054 C 242.770 189.669,244.009 190.770,244.753 191.499 C 245.498 192.229,246.180 192.754,246.269 192.664 C 246.489 192.445,242.472 188.858,241.432 188.345 C 240.974 188.120,241.230 188.438,242.000 189.054 M250.800 188.400 C 251.130 188.613,251.670 188.788,252.000 188.788 C 252.533 188.788,252.533 188.745,252.000 188.400 C 251.670 188.187,251.130 188.012,250.800 188.012 C 250.267 188.012,250.267 188.055,250.800 188.400 M286.600 189.200 C 286.096 189.417,286.022 189.544,286.400 189.544 C 286.730 189.544,287.360 189.389,287.800 189.200 C 288.304 188.983,288.378 188.856,288.000 188.856 C 287.670 188.856,287.040 189.011,286.600 189.200 M160.400 189.755 C 160.400 189.859,162.695 191.873,165.500 194.230 C 168.305 196.587,171.005 198.881,171.500 199.328 C 171.995 199.774,172.400 200.026,172.400 199.886 C 172.400 199.747,169.700 197.368,166.400 194.600 C 163.100 191.832,160.400 189.652,160.400 189.755 M256.600 190.000 C 257.040 190.189,257.760 190.344,258.200 190.344 L 259.000 190.344 258.200 190.000 C 257.760 189.811,257.040 189.656,256.600 189.656 L 255.800 189.656 256.600 190.000 M283.000 190.000 L 282.200 190.344 283.000 190.344 C 283.440 190.344,284.160 190.189,284.600 190.000 L 285.400 189.656 284.600 189.656 C 284.160 189.656,283.440 189.811,283.000 190.000 M260.400 190.800 C 260.950 190.976,261.850 191.120,262.400 191.120 L 263.400 191.120 262.400 190.800 C 261.850 190.624,260.950 190.480,260.400 190.480 L 259.400 190.480 260.400 190.800 M278.000 190.800 L 276.600 191.095 278.000 191.107 C 278.770 191.115,279.850 190.976,280.400 190.800 L 281.400 190.480 280.400 190.493 C 279.850 190.500,278.770 190.638,278.000 190.800 M225.400 192.419 C 224.842 192.671,225.085 192.707,226.200 192.538 C 227.080 192.404,227.875 192.228,227.967 192.147 C 228.310 191.844,226.168 192.071,225.400 192.419 M230.833 192.143 C 230.925 192.221,231.630 192.401,232.400 192.542 C 233.385 192.723,233.622 192.682,233.200 192.406 C 232.658 192.050,230.437 191.803,230.833 192.143 M221.978 193.944 C 221.000 194.573,219.750 195.596,219.200 196.218 C 218.497 197.013,218.793 196.866,220.200 195.721 C 221.300 194.826,222.740 193.809,223.400 193.463 C 224.060 193.116,224.410 192.825,224.178 192.816 C 223.946 192.807,222.956 193.315,221.978 193.944 M247.385 194.700 C 248.002 195.635,248.577 196.400,248.663 196.400 C 248.996 196.400,247.618 194.113,246.958 193.571 C 246.566 193.248,246.751 193.739,247.385 194.700 M225.800 194.020 C 225.261 194.265,225.654 194.305,227.000 194.141 C 228.100 194.007,229.075 193.831,229.167 193.749 C 229.517 193.436,226.561 193.674,225.800 194.020 M229.633 193.744 C 229.725 193.824,230.610 193.996,231.600 194.127 C 232.802 194.286,233.134 194.247,232.600 194.010 C 231.836 193.672,229.286 193.443,229.633 193.744 M237.000 194.563 C 239.347 196.428,239.906 197.024,241.146 198.978 C 241.836 200.066,242.400 200.772,242.400 200.547 C 242.400 199.208,237.327 193.589,236.133 193.604 C 235.950 193.607,236.340 194.038,237.000 194.563 M234.865 195.209 C 235.671 195.635,237.192 196.842,238.245 197.892 C 239.784 199.426,239.958 199.527,239.135 198.409 C 238.076 196.970,234.659 194.387,233.856 194.418 C 233.605 194.427,234.059 194.784,234.865 195.209 M220.269 197.576 C 218.906 199.085,217.595 201.203,217.605 201.880 C 217.607 202.056,218.070 201.390,218.632 200.400 C 219.195 199.410,220.218 198.015,220.906 197.300 C 221.594 196.585,222.053 196.000,221.925 196.000 C 221.797 196.000,221.052 196.709,220.269 197.576 M217.273 198.600 C 217.022 199.150,216.883 199.600,216.963 199.600 C 217.043 199.600,217.403 199.150,217.763 198.600 C 218.124 198.050,218.263 197.600,218.073 197.600 C 217.884 197.600,217.523 198.050,217.273 198.600 M249.612 198.800 C 249.612 199.130,249.787 199.670,250.000 200.000 C 250.345 200.533,250.388 200.533,250.388 200.000 C 250.388 199.670,250.213 199.130,250.000 198.800 C 249.655 198.267,249.612 198.267,249.612 198.800 M208.229 200.229 C 208.081 200.815,208.038 201.372,208.132 201.466 C 208.227 201.560,208.424 201.158,208.571 200.571 C 208.719 199.985,208.762 199.428,208.668 199.334 C 208.573 199.240,208.376 199.642,208.229 200.229 M250.468 201.400 C 250.474 201.840,250.624 202.650,250.800 203.200 L 251.120 204.200 251.132 203.200 C 251.138 202.650,250.989 201.840,250.800 201.400 L 250.456 200.600 250.468 201.400 M252.238 202.200 C 252.570 204.184,252.802 204.504,252.794 202.967 C 252.791 202.325,252.604 201.530,252.379 201.200 C 252.086 200.770,252.046 201.054,252.238 202.200 M163.200 202.367 C 163.200 202.605,163.352 202.755,163.537 202.700 C 163.795 202.623,179.991 215.816,185.965 220.968 C 186.495 221.426,186.813 221.598,186.672 221.350 C 185.839 219.893,163.200 201.583,163.200 202.367 M205.850 203.250 C 205.537 204.815,205.593 209.493,205.940 210.724 C 206.083 211.232,206.200 209.477,206.200 206.824 C 206.200 201.474,206.202 201.491,205.850 203.250 M215.449 202.615 C 215.312 202.973,215.218 203.746,215.240 204.333 C 215.273 205.191,215.352 205.095,215.646 203.840 C 216.022 202.239,215.895 201.453,215.449 202.615 M207.457 203.900 C 207.154 205.734,207.202 208.586,207.563 210.200 C 207.712 210.864,207.838 209.389,207.844 206.900 C 207.857 201.960,207.822 201.689,207.457 203.900 M217.076 203.210 C 216.930 203.755,216.827 204.650,216.846 205.200 C 216.871 205.918,216.984 205.757,217.249 204.627 C 217.655 202.895,217.500 201.625,217.076 203.210 M243.334 206.800 C 243.334 208.450,243.405 209.125,243.491 208.300 C 243.578 207.475,243.578 206.125,243.491 205.300 C 243.405 204.475,243.334 205.150,243.334 206.800 M241.728 206.800 C 241.728 208.230,241.801 208.815,241.889 208.100 C 241.978 207.385,241.978 206.215,241.889 205.500 C 241.801 204.785,241.728 205.370,241.728 206.800 M164.800 206.067 C 164.800 206.323,164.918 206.415,165.063 206.270 C 165.208 206.125,166.153 206.651,167.163 207.438 L 169.000 208.868 167.249 207.234 C 165.452 205.558,164.800 205.247,164.800 206.067 M216.875 208.600 C 216.865 209.260,217.011 210.160,217.200 210.600 L 217.544 211.400 217.525 210.600 C 217.514 210.160,217.368 209.260,217.200 208.600 L 216.895 207.400 216.875 208.600 M169.200 208.943 C 169.200 209.188,195.520 231.200,195.813 231.200 C 195.916 231.200,196.000 231.020,196.000 230.800 C 196.000 230.580,195.827 230.400,195.615 230.400 C 195.403 230.400,190.228 226.235,184.115 221.145 C 178.002 216.054,172.145 211.178,171.100 210.308 C 170.055 209.437,169.200 208.823,169.200 208.943 M215.246 209.600 C 215.227 210.150,215.387 210.870,215.600 211.200 C 216.094 211.964,216.094 211.142,215.600 209.600 L 215.280 208.600 215.246 209.600 M250.849 209.800 C 250.816 210.240,250.696 211.050,250.583 211.600 L 250.377 212.600 250.806 211.619 C 251.042 211.079,251.161 210.269,251.072 209.819 C 250.913 209.021,250.907 209.021,250.849 209.800 M252.449 210.400 C 252.416 210.730,252.289 211.450,252.167 212.000 C 251.975 212.864,252.007 212.903,252.399 212.288 C 252.648 211.897,252.775 211.177,252.681 210.688 C 252.586 210.200,252.482 210.070,252.449 210.400 M242.502 211.819 C 241.524 215.079,238.727 218.352,235.400 220.127 C 234.740 220.480,234.390 220.775,234.622 220.784 C 237.061 220.877,243.581 213.266,243.117 210.868 C 243.046 210.500,242.769 210.928,242.502 211.819 M208.056 212.400 C 208.056 212.730,208.211 213.360,208.400 213.800 C 208.617 214.304,208.744 214.378,208.744 214.000 C 208.744 213.670,208.589 213.040,208.400 212.600 C 208.183 212.096,208.056 212.022,208.056 212.400 M249.120 215.619 C 248.541 216.929,248.152 218.000,248.256 218.000 C 248.526 218.000,250.513 213.580,250.327 213.394 C 250.242 213.308,249.698 214.310,249.120 215.619 M251.479 214.157 C 251.315 214.574,251.275 215.009,251.391 215.124 C 251.755 215.489,252.076 214.891,251.924 214.131 C 251.783 213.435,251.762 213.436,251.479 214.157 M216.821 214.244 C 216.762 215.483,222.742 220.809,224.178 220.796 C 224.410 220.794,223.686 220.268,222.569 219.627 C 220.633 218.517,219.008 216.960,217.521 214.791 C 217.148 214.246,216.833 214.000,216.821 214.244 M207.200 215.190 C 207.200 218.527,218.944 230.390,220.603 228.730 C 220.684 228.649,219.546 227.960,218.075 227.200 C 214.392 225.295,210.547 221.383,208.669 217.629 C 207.861 216.014,207.200 214.917,207.200 215.190 M208.800 214.940 C 208.800 215.359,209.981 217.600,210.202 217.600 C 210.427 217.600,209.565 215.538,209.124 215.020 C 208.946 214.811,208.800 214.775,208.800 214.940 M220.400 216.147 C 221.170 216.982,222.160 217.855,222.600 218.087 C 223.040 218.319,223.310 218.425,223.200 218.322 C 220.642 215.943,219.128 214.767,220.400 216.147 M237.775 216.500 L 236.600 217.800 237.900 216.625 C 238.615 215.979,239.200 215.394,239.200 215.325 C 239.200 215.016,238.870 215.288,237.775 216.500 M120.200 217.200 C 118.434 217.649,120.445 217.669,122.600 217.223 L 124.200 216.892 122.800 216.893 C 122.030 216.894,120.860 217.032,120.200 217.200 M136.800 217.200 C 137.350 217.376,138.340 217.517,139.000 217.513 L 140.200 217.505 139.000 217.200 C 138.340 217.032,137.350 216.891,136.800 216.887 L 135.800 216.880 136.800 217.200 M115.800 218.000 L 115.000 218.344 115.800 218.344 C 116.240 218.344,116.960 218.189,117.400 218.000 L 118.200 217.656 117.400 217.656 C 116.960 217.656,116.240 217.811,115.800 218.000 M141.800 218.000 C 142.996 218.514,143.995 218.514,143.200 218.000 C 142.870 217.787,142.240 217.622,141.800 217.634 L 141.000 217.656 141.800 218.000 M210.842 218.800 C 211.525 220.204,216.338 224.943,217.900 225.750 C 219.824 226.742,219.478 226.261,217.231 224.820 C 215.333 223.602,213.203 221.520,211.274 219.000 C 210.512 218.004,210.439 217.970,210.842 218.800 M145.000 218.800 C 146.196 219.314,147.195 219.314,146.400 218.800 C 146.070 218.587,145.440 218.422,145.000 218.434 L 144.200 218.456 145.000 218.800 M110.000 219.600 C 109.467 219.945,109.467 219.988,110.000 219.988 C 110.330 219.988,110.870 219.813,111.200 219.600 C 111.733 219.255,111.733 219.212,111.200 219.212 C 110.870 219.212,110.330 219.387,110.000 219.600 M225.800 219.581 C 226.568 219.929,228.710 220.156,228.367 219.853 C 228.275 219.772,227.480 219.596,226.600 219.462 C 225.485 219.293,225.242 219.329,225.800 219.581 M231.200 219.600 L 230.200 219.920 231.200 219.932 C 231.750 219.938,232.560 219.789,233.000 219.600 L 233.800 219.256 233.000 219.268 C 232.560 219.274,231.750 219.424,231.200 219.600 M225.200 221.200 C 225.530 221.413,226.250 221.573,226.800 221.554 L 227.800 221.520 226.800 221.200 C 225.258 220.706,224.436 220.706,225.200 221.200 M232.000 221.200 L 231.000 221.520 232.000 221.554 C 232.550 221.573,233.270 221.413,233.600 221.200 C 234.364 220.706,233.542 220.706,232.000 221.200 M244.483 222.301 C 242.643 224.257,243.108 224.338,245.007 222.393 C 245.863 221.517,246.391 220.823,246.181 220.851 C 245.972 220.879,245.208 221.531,244.483 222.301 M187.320 221.864 C 187.475 222.119,188.539 223.109,189.683 224.064 C 190.827 225.019,191.636 225.591,191.480 225.336 C 191.325 225.081,190.261 224.091,189.117 223.136 C 187.973 222.181,187.164 221.609,187.320 221.864 M245.200 224.022 C 244.210 224.900,242.140 226.333,240.600 227.204 C 237.619 228.892,237.307 229.371,240.116 227.946 C 242.191 226.894,247.200 223.216,247.200 222.745 C 247.200 222.251,247.182 222.262,245.200 224.022 M99.829 224.608 C 96.788 226.711,96.269 227.513,99.200 225.579 C 102.207 223.596,102.718 223.191,102.180 223.222 C 101.971 223.234,100.913 223.858,99.829 224.608 M156.800 223.347 C 156.800 223.428,157.565 223.979,158.500 224.572 L 160.200 225.651 158.800 224.436 C 157.540 223.343,156.800 222.940,156.800 223.347 M241.281 224.972 C 239.427 226.283,239.194 226.606,240.629 225.877 C 241.305 225.534,242.092 224.971,242.378 224.626 C 243.071 223.791,242.854 223.860,241.281 224.972 M161.400 226.565 C 162.715 227.694,163.200 227.848,163.200 227.133 C 163.200 226.877,163.085 226.781,162.945 226.922 C 162.805 227.062,162.130 226.807,161.445 226.355 L 160.200 225.534 161.400 226.565 M192.758 226.488 C 193.596 227.439,194.400 227.645,194.400 226.910 C 194.400 226.776,194.278 226.788,194.130 226.937 C 193.981 227.086,193.396 226.801,192.830 226.304 L 191.800 225.400 192.758 226.488 M237.000 227.229 C 236.120 227.652,235.850 227.886,236.400 227.749 C 237.533 227.467,239.612 226.425,239.000 226.446 C 238.780 226.453,237.880 226.806,237.000 227.229 M92.880 230.300 C 90.161 232.969,85.600 238.959,85.600 239.860 C 85.600 240.023,86.628 238.654,87.884 236.818 C 89.140 234.982,91.603 232.067,93.359 230.340 C 95.114 228.613,96.435 227.200,96.294 227.200 C 96.153 227.200,94.617 228.595,92.880 230.300 M224.800 228.393 C 225.788 228.716,229.089 228.935,228.767 228.656 C 228.675 228.576,227.520 228.411,226.200 228.288 C 224.709 228.149,224.179 228.189,224.800 228.393 M231.600 228.400 L 229.800 228.680 231.400 228.700 C 232.280 228.711,233.450 228.576,234.000 228.400 C 235.263 227.995,234.202 227.995,231.600 228.400 M164.800 229.048 C 164.800 229.258,165.745 230.323,166.900 231.415 L 169.000 233.400 167.000 231.208 C 165.900 230.003,164.955 228.938,164.900 228.842 C 164.845 228.745,164.800 228.838,164.800 229.048 M224.400 229.988 C 224.730 230.208,225.615 230.391,226.367 230.394 C 228.160 230.402,227.841 230.175,225.600 229.850 C 224.342 229.667,223.981 229.709,224.400 229.988 M232.400 230.000 L 231.000 230.295 232.400 230.341 C 233.170 230.367,234.070 230.213,234.400 230.000 C 235.127 229.530,234.633 229.530,232.400 230.000 M169.373 234.483 C 169.950 235.306,169.919 235.447,168.905 236.583 L 167.818 237.800 169.147 236.555 C 170.425 235.357,170.386 233.600,169.081 233.600 C 168.902 233.600,169.033 233.997,169.373 234.483 M164.000 240.640 C 159.686 244.422,157.767 246.424,161.198 243.565 C 164.004 241.226,167.925 237.594,167.600 237.635 C 167.490 237.648,165.870 239.001,164.000 240.640 M126.223 244.347 C 125.575 244.486,127.545 244.600,130.600 244.600 C 133.655 244.600,135.625 244.486,134.977 244.347 C 134.330 244.208,132.360 244.095,130.600 244.095 C 128.840 244.095,126.870 244.208,126.223 244.347 M120.378 246.733 C 118.378 248.007,115.957 250.549,115.023 252.356 C 114.009 254.317,114.321 254.349,115.460 252.400 C 116.865 249.996,118.636 248.147,120.700 246.928 C 122.173 246.058,122.718 245.600,122.278 245.600 C 122.211 245.600,121.356 246.110,120.378 246.733 M138.433 245.749 C 138.845 246.117,141.200 247.200,141.200 247.021 C 141.200 246.790,138.982 245.600,138.553 245.600 C 138.396 245.600,138.342 245.667,138.433 245.749 M155.195 248.469 L 152.200 251.283 155.200 248.757 C 156.850 247.368,158.275 246.179,158.367 246.116 C 158.458 246.052,158.456 245.923,158.361 245.828 C 158.267 245.733,156.842 246.922,155.195 248.469 M143.189 248.658 C 144.173 249.506,145.590 250.792,146.339 251.516 C 147.089 252.240,147.776 252.758,147.866 252.667 C 148.073 252.460,144.297 249.047,142.638 247.941 C 141.954 247.485,142.201 247.806,143.189 248.658 M81.000 252.000 C 80.848 252.691,80.807 253.341,80.909 253.442 C 81.011 253.544,81.209 253.053,81.350 252.350 C 81.683 250.683,81.360 250.360,81.000 252.000 M150.305 252.632 C 149.483 253.384,148.944 253.995,149.106 253.988 C 149.497 253.973,152.115 251.582,151.937 251.403 C 151.860 251.327,151.126 251.880,150.305 252.632 M113.800 255.200 C 113.650 255.673,113.617 256.150,113.727 256.260 C 113.837 256.370,114.050 256.073,114.200 255.600 C 114.350 255.127,114.383 254.650,114.273 254.540 C 114.163 254.430,113.950 254.727,113.800 255.200 M80.254 256.656 C 79.925 259.056,79.967 265.754,80.323 267.759 C 80.475 268.616,80.600 266.051,80.600 262.059 C 80.600 253.969,80.607 254.082,80.254 256.656 M113.057 258.700 C 112.754 260.534,112.803 264.176,113.153 265.800 C 113.296 266.460,113.409 264.795,113.406 262.100 C 113.399 256.614,113.400 256.622,113.057 258.700 M145.474 257.499 C 149.255 257.565,155.555 257.565,159.474 257.499 C 163.393 257.434,160.300 257.380,152.600 257.380 C 144.900 257.380,141.693 257.434,145.474 257.499 M137.781 258.107 C 137.674 258.385,137.635 263.290,137.694 269.007 L 137.801 279.400 138.001 268.500 C 138.110 262.505,138.149 257.600,138.087 257.600 C 138.026 257.600,137.887 257.828,137.781 258.107 M166.896 276.620 C 166.836 288.652,166.651 296.020,166.401 296.321 C 166.180 296.589,166.271 296.572,166.605 296.283 C 167.129 295.831,167.194 293.262,167.100 276.582 L 166.992 257.400 166.896 276.620 M80.868 271.400 C 80.862 271.840,81.011 272.560,81.200 273.000 C 81.638 274.019,81.638 272.968,81.200 271.600 C 80.943 270.796,80.877 270.757,80.868 271.400 M115.221 272.220 C 115.186 272.925,119.021 276.954,120.454 277.717 C 121.689 278.376,121.718 278.377,120.800 277.731 C 119.459 276.786,116.732 274.038,115.908 272.800 C 115.542 272.250,115.233 271.989,115.221 272.220 M81.612 274.800 C 81.612 275.130,81.787 275.670,82.000 276.000 C 82.345 276.533,82.388 276.533,82.388 276.000 C 82.388 275.670,82.213 275.130,82.000 274.800 C 81.655 274.267,81.612 274.267,81.612 274.800 M124.000 279.600 C 124.330 279.813,124.870 279.988,125.200 279.988 C 125.733 279.988,125.733 279.945,125.200 279.600 C 124.870 279.387,124.330 279.212,124.000 279.212 C 123.467 279.212,123.467 279.255,124.000 279.600 M128.512 280.295 C 129.564 280.377,131.184 280.376,132.112 280.292 C 133.040 280.208,132.180 280.141,130.200 280.142 C 128.220 280.143,127.460 280.212,128.512 280.295 M86.417 285.800 C 86.392 286.982,94.196 295.769,97.000 297.717 C 97.660 298.175,96.578 297.010,94.595 295.127 C 92.613 293.245,90.183 290.584,89.195 289.215 C 88.208 287.846,87.181 286.428,86.913 286.063 C 86.645 285.698,86.422 285.580,86.417 285.800 M163.100 298.229 C 162.495 298.557,162.000 298.910,162.000 299.013 C 162.000 299.399,162.632 299.157,163.600 298.400 C 164.789 297.470,164.611 297.409,163.100 298.229 M98.400 298.547 C 98.400 298.854,101.255 300.878,101.434 300.699 C 101.534 300.599,100.893 300.038,100.008 299.453 C 99.124 298.868,98.400 298.460,98.400 298.547 M158.400 300.800 C 157.630 301.222,157.144 301.574,157.320 301.583 C 157.744 301.605,160.000 300.432,160.000 300.190 C 160.000 299.928,159.977 299.937,158.400 300.800 M102.000 300.979 C 102.000 301.089,102.540 301.459,103.200 301.800 C 103.860 302.141,104.400 302.331,104.400 302.221 C 104.400 302.111,103.860 301.741,103.200 301.400 C 102.540 301.059,102.000 300.869,102.000 300.979 M145.800 305.200 L 145.000 305.544 145.800 305.544 C 146.240 305.544,146.960 305.389,147.400 305.200 L 148.200 304.856 147.400 304.856 C 146.960 304.856,146.240 305.011,145.800 305.200 M114.200 306.000 C 114.640 306.189,115.360 306.344,115.800 306.344 L 116.600 306.344 115.800 306.000 C 115.360 305.811,114.640 305.656,114.200 305.656 L 113.400 305.656 114.200 306.000 M142.400 306.000 L 141.400 306.320 142.400 306.354 C 142.950 306.373,143.670 306.213,144.000 306.000 C 144.764 305.506,143.942 305.506,142.400 306.000 M118.000 306.800 C 118.550 306.976,119.450 307.120,120.000 307.120 L 121.000 307.120 120.000 306.800 C 119.450 306.624,118.550 306.480,118.000 306.480 L 117.000 306.480 118.000 306.800 M138.400 306.800 L 137.400 307.120 138.400 307.132 C 138.950 307.138,139.760 306.989,140.200 306.800 L 141.000 306.456 140.200 306.468 C 139.760 306.474,138.950 306.624,138.400 306.800 M125.519 307.498 C 127.344 307.572,130.224 307.572,131.919 307.497 C 133.614 307.422,132.120 307.361,128.600 307.362 C 125.080 307.362,123.694 307.424,125.519 307.498 M41.700 356.300 C 51.325 356.360,67.075 356.360,76.700 356.300 C 86.325 356.240,78.450 356.191,59.200 356.191 C 39.950 356.191,32.075 356.240,41.700 356.300 " stroke="none" fill="#8c8c8c" fill-rule="evenodd"></path></g></svg>